<svg xmlns="http://www.w3.org/2000/svg" xmlns:xlink="http://www.w3.org/1999/xlink" width="1500" zoomAndPan="magnify" viewBox="0 0 1125 149.999998" height="200" preserveAspectRatio="xMidYMid meet" version="1.0"><defs><filter x="0%" y="0%" width="100%" height="100%" id="90d1508ac3"><feColorMatrix values="0 0 0 0 1 0 0 0 0 1 0 0 0 0 1 0 0 0 1 0" color-interpolation-filters="sRGB"/></filter><g/><clipPath id="3b6c989c2a"><path d="M 106 0 L 241.601562 0 L 241.601562 133 L 106 133 Z M 106 0 " clip-rule="nonzero"/></clipPath><clipPath id="130d99ef4d"><path d="M 5 0 L 131 0 L 131 88 L 5 88 Z M 5 0 " clip-rule="nonzero"/></clipPath><clipPath id="21a5b7b98e"><rect x="0" width="136" y="0" height="133"/></clipPath><clipPath id="9eed0efb00"><path d="M 0.640625 56 L 139 56 L 139 150 L 0.640625 150 Z M 0.640625 56 " clip-rule="nonzero"/></clipPath><clipPath id="2ed2eded50"><path d="M 6 7 L 133 7 L 133 94 L 6 94 Z M 6 7 " clip-rule="nonzero"/></clipPath><clipPath id="1165998ef3"><rect x="0" width="139" y="0" height="94"/></clipPath><clipPath id="e6b51e4479"><rect x="0" width="242" y="0" height="150"/></clipPath><clipPath id="961cb3e558"><path d="M 1 29.078125 L 323 29.078125 L 323 33.632812 L 1 33.632812 Z M 1 29.078125 " clip-rule="nonzero"/></clipPath><clipPath id="23fcec2ec9"><path d="M 1 29.078125 L 123 29.078125 L 123 33.632812 L 1 33.632812 Z M 1 29.078125 " clip-rule="nonzero"/></clipPath><clipPath id="37e46d6295"><path d="M 0.320312 0.199219 L 328.398438 0.199219 L 328.398438 32 L 0.320312 32 Z M 0.320312 0.199219 " clip-rule="nonzero"/></clipPath><clipPath id="2da4454091"><path d="M 236 0.199219 L 256 0.199219 L 256 24 L 236 24 Z M 236 0.199219 " clip-rule="nonzero"/></clipPath><clipPath id="d35a766b65"><rect x="0" width="329" y="0" height="32"/></clipPath><clipPath id="a9d1bf9206"><path d="M 0.320312 35 L 217 35 L 217 51.078125 L 0.320312 51.078125 Z M 0.320312 35 " clip-rule="nonzero"/></clipPath><clipPath id="3732802c05"><rect x="0" width="217" y="0" height="17"/></clipPath><clipPath id="7aef652bd6"><rect x="0" width="329" y="0" height="52"/></clipPath><clipPath id="fe862ead13"><path d="M 0.679688 10 L 354.441406 10 L 354.441406 46.949219 L 0.679688 46.949219 Z M 0.679688 10 " clip-rule="nonzero"/></clipPath><mask id="8744a85698"><g filter="url(#90d1508ac3)"><rect x="-632.5" width="1620" fill="#000000" y="-120.999999" height="215.999996" fill-opacity="0.36"/></g></mask><clipPath id="8e0d83e461"><path d="M 1 1 L 354 1 L 354 36.949219 L 1 36.949219 Z M 1 1 " clip-rule="nonzero"/></clipPath><clipPath id="f3e796be91"><rect x="0" width="355" y="0" height="37"/></clipPath><clipPath id="4def18d2f8"><path d="M 0.679688 1.304688 L 347 1.304688 L 347 41 L 0.679688 41 Z M 0.679688 1.304688 " clip-rule="nonzero"/></clipPath><mask id="0f740e5a90"><g filter="url(#90d1508ac3)"><rect x="-632.5" width="1620" fill="#000000" y="-120.999999" height="215.999996" fill-opacity="0.26"/></g></mask><clipPath id="1b608d4ce6"><path d="M 1 0.304688 L 346 0.304688 L 346 39 L 1 39 Z M 1 0.304688 " clip-rule="nonzero"/></clipPath><clipPath id="e8dc71d68b"><rect x="0" width="347" y="0" height="40"/></clipPath><clipPath id="007ab0fe3c"><path d="M 18.359375 15.289062 L 36.171875 15.289062 L 36.171875 33.101562 L 18.359375 33.101562 Z M 18.359375 15.289062 " clip-rule="nonzero"/></clipPath><clipPath id="e5fb8659d6"><path d="M 162.757812 16.867188 L 178 16.867188 L 178 31.339844 L 162.757812 31.339844 Z M 162.757812 16.867188 " clip-rule="nonzero"/></clipPath><clipPath id="d702bc3e41"><path d="M 177 29 L 180 29 L 180 31.339844 L 177 31.339844 Z M 177 29 " clip-rule="nonzero"/></clipPath><clipPath id="b8e31da756"><rect x="0" width="355" y="0" height="48"/></clipPath><clipPath id="51b87ca52b"><path d="M 3 143.96875 L 1122 143.96875 L 1122 150 L 3 150 Z M 3 143.96875 " clip-rule="nonzero"/></clipPath><clipPath id="aa8891e920"><path d="M 3 143.96875 L 426 143.96875 L 426 150 L 3 150 Z M 3 143.96875 " clip-rule="nonzero"/></clipPath></defs><rect x="-112.5" width="1350" fill="#ffffff" y="-15" height="179.999997" fill-opacity="1"/><rect x="-112.5" width="1350" fill="#e7f1e6" y="-15" height="179.999997" fill-opacity="1"/><g transform="matrix(1, 0, 0, 1, 8, -0.000000000000007527)"><g clip-path="url(#e6b51e4479)"><g clip-path="url(#3b6c989c2a)"><g transform="matrix(1, 0, 0, 1, 106, -0.000000000000007527)"><g clip-path="url(#21a5b7b98e)"><g clip-path="url(#130d99ef4d)"><g fill="#5d5956" fill-opacity="1"><g transform="translate(0.459637, 87.690063)"><g><path d="M 4.734375 -138.015625 L 41.078125 -138.015625 L 114.359375 -35.78125 L 114.171875 -125.328125 C 114.171875 -130.378906 113.0625 -133.347656 110.84375 -134.234375 C 108.632812 -135.117188 105.320312 -135.5625 100.90625 -135.5625 L 100.90625 -138.015625 L 130.0625 -138.015625 L 130.0625 -135.5625 C 125.769531 -135.5625 122.519531 -135.148438 120.3125 -134.328125 C 118.101562 -133.503906 116.875 -130.820312 116.625 -126.28125 L 116.8125 0 L 114.359375 0 L 26.6875 -122.3125 L 26.6875 -12.6875 C 26.6875 -7.632812 27.820312 -4.664062 30.09375 -3.78125 C 32.375 -2.90625 35.722656 -2.46875 40.140625 -2.46875 L 40.140625 0 L 10.796875 0 L 10.796875 -2.46875 C 15.335938 -2.46875 18.710938 -2.90625 20.921875 -3.78125 C 23.128906 -4.664062 24.234375 -7.632812 24.234375 -12.6875 L 24.234375 -125.71875 C 21.960938 -129.5 19.21875 -132.082031 16 -133.46875 C 12.78125 -134.863281 9.023438 -135.5625 4.734375 -135.5625 Z M 4.734375 -138.015625 "/></g></g></g></g></g></g></g><g clip-path="url(#9eed0efb00)"><g transform="matrix(1, 0, 0, 1, 0, 56)"><g clip-path="url(#1165998ef3)"><g clip-path="url(#2ed2eded50)"><g fill="#5d5956" fill-opacity="1"><g transform="translate(0.902392, 145.111458)"><g><path d="M 5.6875 0 L 5.6875 -2.46875 C 10.226562 -2.46875 13.539062 -3.066406 15.625 -4.265625 C 17.707031 -5.460938 18.75 -8.269531 18.75 -12.6875 L 18.75 -125.328125 C 18.75 -129.753906 17.707031 -132.566406 15.625 -133.765625 C 13.539062 -134.960938 10.226562 -135.5625 5.6875 -135.5625 L 5.6875 -138.015625 L 52.640625 -138.015625 L 52.640625 -135.5625 C 48.210938 -135.5625 44.957031 -134.992188 42.875 -133.859375 C 40.800781 -132.722656 39.695312 -130.070312 39.5625 -125.90625 L 39.5625 -72.328125 L 97.6875 -72.328125 L 97.6875 -125.328125 C 97.6875 -129.753906 96.613281 -132.566406 94.46875 -133.765625 C 92.320312 -134.960938 88.976562 -135.5625 84.4375 -135.5625 L 84.4375 -138.015625 L 131.578125 -138.015625 L 131.578125 -135.5625 C 127.035156 -135.5625 123.722656 -134.960938 121.640625 -133.765625 C 119.554688 -132.566406 118.515625 -129.753906 118.515625 -125.328125 L 118.515625 -12.3125 C 118.515625 -8.019531 119.554688 -5.304688 121.640625 -4.171875 C 123.722656 -3.035156 127.035156 -2.46875 131.578125 -2.46875 L 131.578125 0 L 84.4375 0 L 84.4375 -2.46875 C 88.976562 -2.46875 92.320312 -3.066406 94.46875 -4.265625 C 96.613281 -5.460938 97.6875 -8.269531 97.6875 -12.6875 L 97.6875 -69.859375 L 39.5625 -69.859375 L 39.5625 -10.796875 C 39.820312 -7.253906 41.023438 -4.976562 43.171875 -3.96875 C 45.316406 -2.96875 48.472656 -2.46875 52.640625 -2.46875 L 52.640625 0 Z M 5.6875 0 "/></g></g></g></g></g></g></g></g></g><g transform="matrix(1, 0, 0, 1, 562, 25)"><g clip-path="url(#7aef652bd6)"><g clip-path="url(#961cb3e558)"><path fill="#abc3a8" d="M 1.648438 29.078125 L 322.996094 29.078125 L 322.996094 33.773438 L 1.648438 33.773438 Z M 1.648438 29.078125 " fill-opacity="1" fill-rule="nonzero"/></g><g clip-path="url(#23fcec2ec9)"><path fill="#5d5956" d="M 1.648438 29.078125 L 122.859375 29.078125 L 122.859375 33.773438 L 1.648438 33.773438 Z M 1.648438 29.078125 " fill-opacity="1" fill-rule="nonzero"/></g><g clip-path="url(#37e46d6295)"><g transform="matrix(1, 0, 0, 1, 0, -0.000000000000007105)"><g clip-path="url(#d35a766b65)"><g fill="#000000" fill-opacity="1"><g transform="translate(0.499977, 23.119308)"><g><path d="M 0.90625 0 L 0.90625 -0.390625 C 1.632812 -0.390625 2.164062 -0.484375 2.5 -0.671875 C 2.832031 -0.867188 3 -1.320312 3 -2.03125 L 3 -20.046875 C 3 -20.753906 2.832031 -21.203125 2.5 -21.390625 C 2.164062 -21.585938 1.632812 -21.6875 0.90625 -21.6875 L 0.90625 -22.078125 L 8.421875 -22.078125 L 8.421875 -21.6875 C 7.710938 -21.6875 7.191406 -21.59375 6.859375 -21.40625 C 6.523438 -21.226562 6.347656 -20.804688 6.328125 -20.140625 L 6.328125 -11.5625 L 15.625 -11.5625 L 15.625 -20.046875 C 15.625 -20.753906 15.453125 -21.203125 15.109375 -21.390625 C 14.765625 -21.585938 14.226562 -21.6875 13.5 -21.6875 L 13.5 -22.078125 L 21.046875 -22.078125 L 21.046875 -21.6875 C 20.316406 -21.6875 19.785156 -21.585938 19.453125 -21.390625 C 19.117188 -21.203125 18.953125 -20.753906 18.953125 -20.046875 L 18.953125 -1.96875 C 18.953125 -1.28125 19.117188 -0.84375 19.453125 -0.65625 C 19.785156 -0.476562 20.316406 -0.390625 21.046875 -0.390625 L 21.046875 0 L 13.5 0 L 13.5 -0.390625 C 14.226562 -0.390625 14.765625 -0.484375 15.109375 -0.671875 C 15.453125 -0.867188 15.625 -1.320312 15.625 -2.03125 L 15.625 -11.171875 L 6.328125 -11.171875 L 6.328125 -1.71875 C 6.367188 -1.15625 6.5625 -0.789062 6.90625 -0.625 C 7.25 -0.46875 7.753906 -0.390625 8.421875 -0.390625 L 8.421875 0 Z M 0.90625 0 "/></g></g></g><g fill="#000000" fill-opacity="1"><g transform="translate(30.261066, 23.119308)"><g><path d="M 5.171875 0 L 0.453125 0 L 0.453125 -0.390625 C 0.960938 -0.390625 1.472656 -0.570312 1.984375 -0.9375 C 2.492188 -1.300781 2.863281 -1.753906 3.09375 -2.296875 L 9.6875 -18.109375 L 8.84375 -20.171875 C 8.601562 -20.773438 8.226562 -21.175781 7.71875 -21.375 C 7.21875 -21.582031 6.664062 -21.6875 6.0625 -21.6875 L 6.0625 -22.078125 L 11.359375 -22.078125 L 19.3125 -3.0625 C 19.738281 -2.070312 20.207031 -1.378906 20.71875 -0.984375 C 21.238281 -0.585938 21.875 -0.390625 22.625 -0.390625 L 22.625 0 L 14.109375 0 L 14.109375 -0.390625 L 14.921875 -0.390625 C 15.710938 -0.390625 16.160156 -0.644531 16.265625 -1.15625 C 16.378906 -1.675781 16.285156 -2.300781 15.984375 -3.03125 L 14.265625 -7.234375 L 5.546875 -7.234375 L 3.546875 -2.421875 C 3.285156 -1.773438 3.332031 -1.273438 3.6875 -0.921875 C 4.050781 -0.566406 4.546875 -0.390625 5.171875 -0.390625 Z M 9.90625 -17.65625 L 5.71875 -7.625 L 14.078125 -7.625 Z M 9.90625 -17.65625 "/></g></g></g><g fill="#000000" fill-opacity="1"><g transform="translate(61.142255, 23.119308)"><g><path d="M 3 -2.03125 L 3 -20.046875 C 3 -20.753906 2.832031 -21.203125 2.5 -21.390625 C 2.164062 -21.585938 1.632812 -21.6875 0.90625 -21.6875 L 0.90625 -22.078125 L 8.453125 -22.078125 L 8.453125 -21.6875 C 7.722656 -21.6875 7.1875 -21.585938 6.84375 -21.390625 C 6.5 -21.203125 6.328125 -20.753906 6.328125 -20.046875 L 6.328125 -2.03125 C 6.328125 -1.320312 6.5 -0.867188 6.84375 -0.671875 C 7.1875 -0.484375 7.710938 -0.390625 8.421875 -0.390625 L 8.453125 0 L 0.90625 0 L 0.90625 -0.390625 C 1.632812 -0.390625 2.164062 -0.484375 2.5 -0.671875 C 2.832031 -0.867188 3 -1.320312 3 -2.03125 Z M 3 -2.03125 "/></g></g></g><g fill="#000000" fill-opacity="1"><g transform="translate(78.309799, 23.119308)"><g><path d="M 0.90625 -21.6875 L 0.90625 -22.078125 L 8.453125 -22.078125 L 8.453125 -21.6875 C 7.722656 -21.6875 7.191406 -21.585938 6.859375 -21.390625 C 6.523438 -21.203125 6.359375 -20.753906 6.359375 -20.046875 L 6.359375 -2 C 6.359375 -1.269531 6.648438 -0.816406 7.234375 -0.640625 C 7.816406 -0.472656 8.878906 -0.390625 10.421875 -0.390625 C 12.148438 -0.390625 13.566406 -0.757812 14.671875 -1.5 C 15.773438 -2.238281 16.660156 -3.238281 17.328125 -4.5 C 18.003906 -5.757812 18.578125 -7.15625 19.046875 -8.6875 L 19.4375 -8.6875 L 17.296875 0 L 0.90625 0 L 0.90625 -0.390625 C 1.570312 -0.390625 2.078125 -0.445312 2.421875 -0.5625 C 2.765625 -0.675781 2.957031 -1.054688 3 -1.703125 L 3 -20.046875 C 3 -20.753906 2.832031 -21.203125 2.5 -21.390625 C 2.164062 -21.585938 1.632812 -21.6875 0.90625 -21.6875 Z M 0.90625 -21.6875 "/></g></g></g><g fill="#000000" fill-opacity="1"><g transform="translate(106.315053, 23.119308)"><g><path d="M 0.90625 0 L 0.90625 -0.390625 C 1.570312 -0.390625 2.078125 -0.46875 2.421875 -0.625 C 2.765625 -0.789062 2.96875 -1.15625 3.03125 -1.71875 L 3 -20.046875 C 3 -20.753906 2.832031 -21.203125 2.5 -21.390625 C 2.164062 -21.585938 1.632812 -21.6875 0.90625 -21.6875 L 0.90625 -22.078125 L 16.5625 -22.078125 L 18.171875 -17.296875 L 17.78125 -17.296875 C 17.414062 -18.441406 17 -19.332031 16.53125 -19.96875 C 16.070312 -20.601562 15.484375 -21.039062 14.765625 -21.28125 C 14.046875 -21.53125 13.113281 -21.65625 11.96875 -21.65625 C 10.507812 -21.65625 9.375 -21.617188 8.5625 -21.546875 C 7.757812 -21.472656 7.191406 -21.320312 6.859375 -21.09375 C 6.523438 -20.875 6.359375 -20.523438 6.359375 -20.046875 L 6.359375 -11.78125 L 9.84375 -11.78125 C 10.9375 -11.800781 11.726562 -11.984375 12.21875 -12.328125 C 12.707031 -12.671875 13.015625 -13.179688 13.140625 -13.859375 C 13.265625 -14.546875 13.328125 -15.394531 13.328125 -16.40625 L 13.71875 -16.40625 L 13.71875 -6.390625 L 13.328125 -6.390625 C 13.328125 -7.421875 13.273438 -8.304688 13.171875 -9.046875 C 13.066406 -9.796875 12.773438 -10.375 12.296875 -10.78125 C 11.828125 -11.1875 11.007812 -11.390625 9.84375 -11.390625 L 6.359375 -11.390625 L 6.359375 -2.03125 C 6.359375 -1.34375 6.648438 -0.894531 7.234375 -0.6875 C 7.816406 -0.488281 8.878906 -0.390625 10.421875 -0.390625 C 12.148438 -0.390625 13.566406 -0.757812 14.671875 -1.5 C 15.773438 -2.238281 16.660156 -3.238281 17.328125 -4.5 C 18.003906 -5.757812 18.578125 -7.15625 19.046875 -8.6875 L 19.4375 -8.6875 L 17.296875 0 Z M 0.90625 0 "/></g></g></g><g fill="#000000" fill-opacity="1"><g transform="translate(134.350575, 23.119308)"><g><path d="M 0.453125 -22.078125 L 8.96875 -22.078125 L 8.96875 -21.6875 C 7.9375 -21.6875 7.226562 -21.597656 6.84375 -21.421875 C 6.457031 -21.253906 6.445312 -20.796875 6.8125 -20.046875 L 11.59375 -10.203125 C 11.632812 -10.203125 11.660156 -10.203125 11.671875 -10.203125 C 11.679688 -10.203125 11.695312 -10.203125 11.71875 -10.203125 L 16.234375 -20.078125 C 16.515625 -20.722656 16.539062 -21.148438 16.3125 -21.359375 C 16.09375 -21.578125 15.570312 -21.6875 14.75 -21.6875 L 14.75 -22.078125 L 19.109375 -22.078125 L 19.109375 -21.6875 C 18.335938 -21.6875 17.820312 -21.597656 17.5625 -21.421875 C 17.300781 -21.253906 17.050781 -20.914062 16.8125 -20.40625 L 12.140625 -10.109375 L 12.109375 -1.84375 C 12.148438 -1.21875 12.335938 -0.816406 12.671875 -0.640625 C 13.003906 -0.472656 13.515625 -0.390625 14.203125 -0.390625 L 14.203125 0 L 6.6875 0 L 6.6875 -0.390625 C 7.414062 -0.390625 7.953125 -0.488281 8.296875 -0.6875 C 8.640625 -0.894531 8.8125 -1.34375 8.8125 -2.03125 L 8.8125 -8.546875 C 8.707031 -8.742188 8.5 -9.160156 8.1875 -9.796875 C 7.875 -10.429688 7.5 -11.191406 7.0625 -12.078125 C 6.632812 -12.972656 6.175781 -13.914062 5.6875 -14.90625 C 5.207031 -15.90625 4.734375 -16.878906 4.265625 -17.828125 C 3.804688 -18.785156 3.40625 -19.613281 3.0625 -20.3125 C 2.800781 -20.820312 2.515625 -21.175781 2.203125 -21.375 C 1.898438 -21.582031 1.316406 -21.6875 0.453125 -21.6875 Z M 0.453125 -22.078125 "/></g></g></g><g fill="#000000" fill-opacity="1"><g transform="translate(161.720093, 23.119308)"><g/></g></g><g fill="#000000" fill-opacity="1"><g transform="translate(178.009719, 23.119308)"><g><path d="M 0.75 -22.078125 L 6.578125 -22.078125 L 18.296875 -5.71875 L 18.265625 -20.046875 C 18.265625 -20.847656 18.085938 -21.320312 17.734375 -21.46875 C 17.378906 -21.613281 16.847656 -21.6875 16.140625 -21.6875 L 16.140625 -22.078125 L 20.796875 -22.078125 L 20.796875 -21.6875 C 20.117188 -21.6875 19.601562 -21.617188 19.25 -21.484375 C 18.894531 -21.347656 18.695312 -20.921875 18.65625 -20.203125 L 18.6875 0 L 18.296875 0 L 4.265625 -19.5625 L 4.265625 -2.03125 C 4.265625 -1.21875 4.445312 -0.738281 4.8125 -0.59375 C 5.175781 -0.457031 5.710938 -0.390625 6.421875 -0.390625 L 6.421875 0 L 1.71875 0 L 1.71875 -0.390625 C 2.445312 -0.390625 2.988281 -0.457031 3.34375 -0.59375 C 3.695312 -0.738281 3.875 -1.21875 3.875 -2.03125 L 3.875 -20.109375 C 3.507812 -20.710938 3.066406 -21.125 2.546875 -21.34375 C 2.035156 -21.570312 1.4375 -21.6875 0.75 -21.6875 Z M 0.75 -22.078125 "/></g></g></g><g fill="#000000" fill-opacity="1"><g transform="translate(207.377253, 23.119308)"><g><path d="M 0.453125 -22.078125 L 8.96875 -22.078125 L 8.96875 -21.6875 C 7.9375 -21.6875 7.226562 -21.597656 6.84375 -21.421875 C 6.457031 -21.253906 6.445312 -20.796875 6.8125 -20.046875 L 11.59375 -10.203125 C 11.632812 -10.203125 11.660156 -10.203125 11.671875 -10.203125 C 11.679688 -10.203125 11.695312 -10.203125 11.71875 -10.203125 L 16.234375 -20.078125 C 16.515625 -20.722656 16.539062 -21.148438 16.3125 -21.359375 C 16.09375 -21.578125 15.570312 -21.6875 14.75 -21.6875 L 14.75 -22.078125 L 19.109375 -22.078125 L 19.109375 -21.6875 C 18.335938 -21.6875 17.820312 -21.597656 17.5625 -21.421875 C 17.300781 -21.253906 17.050781 -20.914062 16.8125 -20.40625 L 12.140625 -10.109375 L 12.109375 -1.84375 C 12.148438 -1.21875 12.335938 -0.816406 12.671875 -0.640625 C 13.003906 -0.472656 13.515625 -0.390625 14.203125 -0.390625 L 14.203125 0 L 6.6875 0 L 6.6875 -0.390625 C 7.414062 -0.390625 7.953125 -0.488281 8.296875 -0.6875 C 8.640625 -0.894531 8.8125 -1.34375 8.8125 -2.03125 L 8.8125 -8.546875 C 8.707031 -8.742188 8.5 -9.160156 8.1875 -9.796875 C 7.875 -10.429688 7.5 -11.191406 7.0625 -12.078125 C 6.632812 -12.972656 6.175781 -13.914062 5.6875 -14.90625 C 5.207031 -15.90625 4.734375 -16.878906 4.265625 -17.828125 C 3.804688 -18.785156 3.40625 -19.613281 3.0625 -20.3125 C 2.800781 -20.820312 2.515625 -21.175781 2.203125 -21.375 C 1.898438 -21.582031 1.316406 -21.6875 0.453125 -21.6875 Z M 0.453125 -22.078125 "/></g></g></g><g clip-path="url(#2da4454091)"><g fill="#000000" fill-opacity="1"><g transform="translate(234.746781, 23.119308)"><g><path d="M 12.109375 0.359375 C 10.035156 0.359375 8.195312 -0.109375 6.59375 -1.046875 C 5 -1.984375 3.753906 -3.273438 2.859375 -4.921875 C 1.960938 -6.566406 1.515625 -8.445312 1.515625 -10.5625 C 1.515625 -12.195312 1.753906 -13.734375 2.234375 -15.171875 C 2.722656 -16.609375 3.429688 -17.867188 4.359375 -18.953125 C 5.285156 -20.046875 6.410156 -20.894531 7.734375 -21.5 C 9.054688 -22.101562 10.554688 -22.40625 12.234375 -22.40625 C 13.203125 -22.40625 14.007812 -22.289062 14.65625 -22.0625 C 15.300781 -21.84375 15.84375 -21.625 16.28125 -21.40625 C 16.726562 -21.1875 17.113281 -21.078125 17.4375 -21.078125 C 17.625 -21.078125 17.804688 -21.140625 17.984375 -21.265625 C 18.171875 -21.398438 18.265625 -21.671875 18.265625 -22.078125 L 18.65625 -22.078125 L 18.65625 -14.46875 L 18.296875 -14.46875 C 18.296875 -17.019531 17.78125 -18.859375 16.75 -19.984375 C 15.71875 -21.117188 14.300781 -21.6875 12.5 -21.6875 C 11.15625 -21.6875 9.925781 -21.320312 8.8125 -20.59375 C 7.695312 -19.863281 6.804688 -18.78125 6.140625 -17.34375 C 5.472656 -15.914062 5.140625 -14.140625 5.140625 -12.015625 C 5.140625 -9.921875 5.472656 -8.0625 6.140625 -6.4375 C 6.804688 -4.8125 7.769531 -3.539062 9.03125 -2.625 C 10.300781 -1.71875 11.800781 -1.265625 13.53125 -1.265625 C 14.988281 -1.265625 16.1875 -1.585938 17.125 -2.234375 C 18.0625 -2.878906 18.75 -3.722656 19.1875 -4.765625 C 19.632812 -5.804688 19.859375 -6.921875 19.859375 -8.109375 L 20.265625 -8.109375 C 20.265625 -7.066406 20.101562 -6.039062 19.78125 -5.03125 C 19.46875 -4.019531 18.976562 -3.101562 18.3125 -2.28125 C 17.65625 -1.46875 16.816406 -0.820312 15.796875 -0.34375 C 14.773438 0.125 13.546875 0.359375 12.109375 0.359375 Z M 12.109375 0.359375 "/></g></g></g></g><g fill="#000000" fill-opacity="1"><g transform="translate(264.174852, 23.119308)"><g><path d="M 1.21875 -21.6875 L 1.21875 -22.078125 L 8.84375 -22.078125 L 8.84375 -21.6875 C 8.113281 -21.6875 7.570312 -21.585938 7.21875 -21.390625 C 6.863281 -21.203125 6.6875 -20.691406 6.6875 -19.859375 L 6.6875 -7.875 C 6.6875 -5.351562 7.207031 -3.460938 8.25 -2.203125 C 9.289062 -0.953125 10.71875 -0.328125 12.53125 -0.328125 C 13.820312 -0.328125 14.957031 -0.539062 15.9375 -0.96875 C 16.914062 -1.394531 17.6875 -2.132812 18.25 -3.1875 C 18.820312 -4.25 19.109375 -5.738281 19.109375 -7.65625 L 19.109375 -20.171875 C 19.066406 -20.835938 18.867188 -21.253906 18.515625 -21.421875 C 18.160156 -21.597656 17.640625 -21.6875 16.953125 -21.6875 L 16.953125 -22.078125 L 21.65625 -22.078125 L 21.65625 -21.6875 C 21.082031 -21.6875 20.578125 -21.585938 20.140625 -21.390625 C 19.710938 -21.203125 19.5 -20.691406 19.5 -19.859375 L 19.5 -7.65625 C 19.5 -7.070312 19.457031 -6.425781 19.375 -5.71875 C 19.300781 -5.007812 19.117188 -4.296875 18.828125 -3.578125 C 18.546875 -2.867188 18.128906 -2.21875 17.578125 -1.625 C 17.023438 -1.03125 16.273438 -0.550781 15.328125 -0.1875 C 14.390625 0.175781 13.21875 0.359375 11.8125 0.359375 C 9.664062 0.359375 7.976562 0.00390625 6.75 -0.703125 C 5.519531 -1.421875 4.644531 -2.398438 4.125 -3.640625 C 3.613281 -4.890625 3.359375 -6.300781 3.359375 -7.875 L 3.359375 -19.859375 C 3.359375 -20.691406 3.179688 -21.203125 2.828125 -21.390625 C 2.472656 -21.585938 1.9375 -21.6875 1.21875 -21.6875 Z M 1.21875 -21.6875 "/></g></g></g><g fill="#000000" fill-opacity="1"><g transform="translate(294.390035, 23.119308)"><g><path d="M 0.75 -21.6875 L 0.75 -22.078125 L 6.328125 -22.078125 L 13.109375 -4.71875 L 19.59375 -22.078125 L 25.078125 -22.078125 L 25.078125 -21.6875 C 24.367188 -21.6875 23.835938 -21.613281 23.484375 -21.46875 C 23.128906 -21.320312 22.941406 -20.878906 22.921875 -20.140625 L 22.921875 -2.0625 C 22.921875 -1.25 23.097656 -0.765625 23.453125 -0.609375 C 23.804688 -0.460938 24.347656 -0.390625 25.078125 -0.390625 L 25.078125 0 L 17.4375 0 L 17.4375 -0.390625 C 18.164062 -0.390625 18.707031 -0.460938 19.0625 -0.609375 C 19.414062 -0.765625 19.59375 -1.25 19.59375 -2.0625 L 19.59375 -20.890625 L 11.78125 0 L 11.359375 0 L 3.75 -19.75 C 3.726562 -19.78125 3.710938 -19.816406 3.703125 -19.859375 C 3.691406 -19.898438 3.675781 -19.929688 3.65625 -19.953125 L 3.65625 -1.96875 C 3.675781 -1.21875 3.863281 -0.765625 4.21875 -0.609375 C 4.570312 -0.460938 5.101562 -0.390625 5.8125 -0.390625 L 5.8125 0 L 1.125 0 L 1.125 -0.390625 C 1.84375 -0.390625 2.378906 -0.460938 2.734375 -0.609375 C 3.085938 -0.765625 3.265625 -1.25 3.265625 -2.0625 L 3.265625 -20.75 C 3.003906 -21.144531 2.6875 -21.398438 2.3125 -21.515625 C 1.9375 -21.628906 1.414062 -21.6875 0.75 -21.6875 Z M 0.75 -21.6875 "/></g></g></g></g></g></g><g clip-path="url(#a9d1bf9206)"><g transform="matrix(1, 0, 0, 1, 0, 35)"><g clip-path="url(#3732802c05)"><g fill="#000000" fill-opacity="1"><g transform="translate(0.499977, 11.806986)"><g><path d="M 1.21875 0 L 1.21875 -7.515625 L 3.578125 -7.515625 C 4.378906 -7.515625 5.070312 -7.359375 5.65625 -7.046875 C 6.238281 -6.734375 6.691406 -6.296875 7.015625 -5.734375 C 7.335938 -5.171875 7.5 -4.507812 7.5 -3.75 C 7.5 -3 7.335938 -2.34375 7.015625 -1.78125 C 6.691406 -1.21875 6.238281 -0.78125 5.65625 -0.46875 C 5.070312 -0.15625 4.378906 0 3.578125 0 Z M 1.875 -0.625 L 3.578125 -0.625 C 4.242188 -0.625 4.820312 -0.75 5.3125 -1 C 5.800781 -1.257812 6.175781 -1.625 6.4375 -2.09375 C 6.695312 -2.5625 6.828125 -3.113281 6.828125 -3.75 C 6.828125 -4.394531 6.691406 -4.953125 6.421875 -5.421875 C 6.160156 -5.890625 5.785156 -6.25 5.296875 -6.5 C 4.816406 -6.757812 4.238281 -6.890625 3.5625 -6.890625 L 1.875 -6.890625 Z M 1.875 -0.625 "/></g></g></g><g fill="#000000" fill-opacity="1"><g transform="translate(12.102439, 11.806986)"><g><path d="M 1.21875 0 L 1.21875 -7.515625 L 1.875 -7.515625 L 1.875 0 Z M 1.21875 0 "/></g></g></g><g fill="#000000" fill-opacity="1"><g transform="translate(18.612691, 11.806986)"><g><path d="M 4.484375 0.140625 C 3.742188 0.140625 3.085938 -0.0234375 2.515625 -0.359375 C 1.941406 -0.691406 1.492188 -1.148438 1.171875 -1.734375 C 0.847656 -2.328125 0.6875 -3 0.6875 -3.75 C 0.6875 -4.507812 0.847656 -5.179688 1.171875 -5.765625 C 1.492188 -6.359375 1.941406 -6.820312 2.515625 -7.15625 C 3.085938 -7.488281 3.738281 -7.65625 4.46875 -7.65625 C 5.039062 -7.65625 5.566406 -7.550781 6.046875 -7.34375 C 6.535156 -7.132812 6.953125 -6.84375 7.296875 -6.46875 C 7.640625 -6.101562 7.890625 -5.679688 8.046875 -5.203125 L 7.34375 -5.203125 C 7.101562 -5.753906 6.734375 -6.191406 6.234375 -6.515625 C 5.742188 -6.835938 5.164062 -7 4.5 -7 C 3.875 -7 3.320312 -6.863281 2.84375 -6.59375 C 2.375 -6.320312 2.007812 -5.941406 1.75 -5.453125 C 1.488281 -4.960938 1.359375 -4.394531 1.359375 -3.75 C 1.359375 -3.113281 1.488281 -2.550781 1.75 -2.0625 C 2.007812 -1.570312 2.378906 -1.191406 2.859375 -0.921875 C 3.335938 -0.648438 3.882812 -0.515625 4.5 -0.515625 C 5.082031 -0.515625 5.59375 -0.632812 6.03125 -0.875 C 6.476562 -1.113281 6.835938 -1.445312 7.109375 -1.875 C 7.378906 -2.300781 7.535156 -2.785156 7.578125 -3.328125 L 4.25 -3.328125 L 4.25 -3.953125 L 8.28125 -3.953125 C 8.28125 -3.160156 8.125 -2.453125 7.8125 -1.828125 C 7.5 -1.210938 7.054688 -0.726562 6.484375 -0.375 C 5.921875 -0.03125 5.253906 0.140625 4.484375 0.140625 Z M 4.484375 0.140625 "/></g></g></g><g fill="#000000" fill-opacity="1"><g transform="translate(30.965585, 11.806986)"><g><path d="M 1.21875 0 L 1.21875 -7.515625 L 1.875 -7.515625 L 1.875 0 Z M 1.21875 0 "/></g></g></g><g fill="#000000" fill-opacity="1"><g transform="translate(37.475838, 11.806986)"><g><path d="M 3 0 L 3 -6.890625 L 0.40625 -6.890625 L 0.40625 -7.515625 L 6.234375 -7.515625 L 6.234375 -6.890625 L 3.640625 -6.890625 L 3.640625 0 Z M 3 0 "/></g></g></g><g fill="#000000" fill-opacity="1"><g transform="translate(47.54528, 11.806986)"><g><path d="M 0.234375 0 L 3.34375 -7.515625 L 3.96875 -7.515625 L 7.078125 0 L 6.390625 0 L 5.609375 -1.890625 L 1.703125 -1.890625 L 0.9375 0 Z M 1.96875 -2.484375 L 5.359375 -2.484375 L 3.65625 -6.625 Z M 1.96875 -2.484375 "/></g></g></g><g fill="#000000" fill-opacity="1"><g transform="translate(58.300831, 11.806986)"><g><path d="M 1.21875 0 L 1.21875 -7.515625 L 1.875 -7.515625 L 1.875 -0.625 L 5.671875 -0.625 L 5.671875 0 Z M 1.21875 0 "/></g></g></g><g fill="#000000" fill-opacity="1"><g transform="translate(67.769925, 11.806986)"><g/></g></g><g fill="#000000" fill-opacity="1"><g transform="translate(74.076489, 11.806986)"><g><path d="M 1.21875 0 L 1.21875 -7.515625 L 1.828125 -7.515625 L 4.953125 -2.8125 L 8.078125 -7.515625 L 8.671875 -7.515625 L 8.671875 0 L 8.03125 0 L 8.03125 -6.3125 L 5.21875 -2.09375 L 4.6875 -2.09375 L 1.875 -6.3125 L 1.875 0 Z M 1.21875 0 "/></g></g></g><g fill="#000000" fill-opacity="1"><g transform="translate(87.383504, 11.806986)"><g><path d="M 1.21875 0 L 1.21875 -7.515625 L 5.640625 -7.515625 L 5.640625 -6.90625 L 1.875 -6.90625 L 1.875 -4.125 L 5.359375 -4.125 L 5.359375 -3.53125 L 1.875 -3.53125 L 1.875 -0.609375 L 5.75 -0.609375 L 5.75 0 Z M 1.21875 0 "/></g></g></g><g fill="#000000" fill-opacity="1"><g transform="translate(97.345737, 11.806986)"><g><path d="M 1.21875 0 L 1.21875 -7.515625 L 3.578125 -7.515625 C 4.378906 -7.515625 5.070312 -7.359375 5.65625 -7.046875 C 6.238281 -6.734375 6.691406 -6.296875 7.015625 -5.734375 C 7.335938 -5.171875 7.5 -4.507812 7.5 -3.75 C 7.5 -3 7.335938 -2.34375 7.015625 -1.78125 C 6.691406 -1.21875 6.238281 -0.78125 5.65625 -0.46875 C 5.070312 -0.15625 4.378906 0 3.578125 0 Z M 1.875 -0.625 L 3.578125 -0.625 C 4.242188 -0.625 4.820312 -0.75 5.3125 -1 C 5.800781 -1.257812 6.175781 -1.625 6.4375 -2.09375 C 6.695312 -2.5625 6.828125 -3.113281 6.828125 -3.75 C 6.828125 -4.394531 6.691406 -4.953125 6.421875 -5.421875 C 6.160156 -5.890625 5.785156 -6.25 5.296875 -6.5 C 4.816406 -6.757812 4.238281 -6.890625 3.5625 -6.890625 L 1.875 -6.890625 Z M 1.875 -0.625 "/></g></g></g><g fill="#000000" fill-opacity="1"><g transform="translate(108.948199, 11.806986)"><g><path d="M 1.21875 0 L 1.21875 -7.515625 L 1.875 -7.515625 L 1.875 0 Z M 1.21875 0 "/></g></g></g><g fill="#000000" fill-opacity="1"><g transform="translate(115.458452, 11.806986)"><g><path d="M 0.234375 0 L 3.34375 -7.515625 L 3.96875 -7.515625 L 7.078125 0 L 6.390625 0 L 5.609375 -1.890625 L 1.703125 -1.890625 L 0.9375 0 Z M 1.96875 -2.484375 L 5.359375 -2.484375 L 3.65625 -6.625 Z M 1.96875 -2.484375 "/></g></g></g><g fill="#000000" fill-opacity="1"><g transform="translate(126.214002, 11.806986)"><g/></g></g><g fill="#000000" fill-opacity="1"><g transform="translate(132.520566, 11.806986)"><g><path d="M 1.21875 0 L 1.21875 -7.515625 L 3.578125 -7.515625 C 4.378906 -7.515625 5.070312 -7.359375 5.65625 -7.046875 C 6.238281 -6.734375 6.691406 -6.296875 7.015625 -5.734375 C 7.335938 -5.171875 7.5 -4.507812 7.5 -3.75 C 7.5 -3 7.335938 -2.34375 7.015625 -1.78125 C 6.691406 -1.21875 6.238281 -0.78125 5.65625 -0.46875 C 5.070312 -0.15625 4.378906 0 3.578125 0 Z M 1.875 -0.625 L 3.578125 -0.625 C 4.242188 -0.625 4.820312 -0.75 5.3125 -1 C 5.800781 -1.257812 6.175781 -1.625 6.4375 -2.09375 C 6.695312 -2.5625 6.828125 -3.113281 6.828125 -3.75 C 6.828125 -4.394531 6.691406 -4.953125 6.421875 -5.421875 C 6.160156 -5.890625 5.785156 -6.25 5.296875 -6.5 C 4.816406 -6.757812 4.238281 -6.890625 3.5625 -6.890625 L 1.875 -6.890625 Z M 1.875 -0.625 "/></g></g></g><g fill="#000000" fill-opacity="1"><g transform="translate(144.123028, 11.806986)"><g><path d="M 1.21875 0 L 1.21875 -7.515625 L 5.640625 -7.515625 L 5.640625 -6.90625 L 1.875 -6.90625 L 1.875 -4.125 L 5.359375 -4.125 L 5.359375 -3.53125 L 1.875 -3.53125 L 1.875 -0.609375 L 5.75 -0.609375 L 5.75 0 Z M 1.21875 0 "/></g></g></g><g fill="#000000" fill-opacity="1"><g transform="translate(154.085261, 11.806986)"><g><path d="M 3.625 0.140625 C 3.050781 0.140625 2.550781 0.046875 2.125 -0.140625 C 1.695312 -0.335938 1.363281 -0.613281 1.125 -0.96875 C 0.894531 -1.332031 0.769531 -1.753906 0.75 -2.234375 L 1.390625 -2.234375 C 1.429688 -1.679688 1.648438 -1.25 2.046875 -0.9375 C 2.453125 -0.632812 2.976562 -0.484375 3.625 -0.484375 C 4.238281 -0.484375 4.722656 -0.609375 5.078125 -0.859375 C 5.441406 -1.117188 5.625 -1.46875 5.625 -1.90625 C 5.625 -2.289062 5.457031 -2.609375 5.125 -2.859375 C 4.800781 -3.109375 4.257812 -3.316406 3.5 -3.484375 C 2.570312 -3.691406 1.898438 -3.960938 1.484375 -4.296875 C 1.078125 -4.640625 0.875 -5.09375 0.875 -5.65625 C 0.875 -6.257812 1.101562 -6.742188 1.5625 -7.109375 C 2.019531 -7.472656 2.648438 -7.65625 3.453125 -7.65625 C 4.273438 -7.65625 4.925781 -7.453125 5.40625 -7.046875 C 5.882812 -6.648438 6.132812 -6.085938 6.15625 -5.359375 L 5.515625 -5.359375 C 5.484375 -5.890625 5.285156 -6.300781 4.921875 -6.59375 C 4.566406 -6.882812 4.078125 -7.03125 3.453125 -7.03125 C 2.835938 -7.03125 2.363281 -6.90625 2.03125 -6.65625 C 1.695312 -6.40625 1.53125 -6.070312 1.53125 -5.65625 C 1.53125 -5.28125 1.6875 -4.96875 2 -4.71875 C 2.320312 -4.476562 2.875 -4.269531 3.65625 -4.09375 C 4.613281 -3.863281 5.289062 -3.578125 5.6875 -3.234375 C 6.09375 -2.890625 6.296875 -2.445312 6.296875 -1.90625 C 6.296875 -1.28125 6.054688 -0.78125 5.578125 -0.40625 C 5.097656 -0.0390625 4.445312 0.140625 3.625 0.140625 Z M 3.625 0.140625 "/></g></g></g><g fill="#000000" fill-opacity="1"><g transform="translate(164.562081, 11.806986)"><g><path d="M 1.21875 0 L 1.21875 -7.515625 L 1.875 -7.515625 L 1.875 0 Z M 1.21875 0 "/></g></g></g><g fill="#000000" fill-opacity="1"><g transform="translate(171.072334, 11.806986)"><g><path d="M 4.484375 0.140625 C 3.742188 0.140625 3.085938 -0.0234375 2.515625 -0.359375 C 1.941406 -0.691406 1.492188 -1.148438 1.171875 -1.734375 C 0.847656 -2.328125 0.6875 -3 0.6875 -3.75 C 0.6875 -4.507812 0.847656 -5.179688 1.171875 -5.765625 C 1.492188 -6.359375 1.941406 -6.820312 2.515625 -7.15625 C 3.085938 -7.488281 3.738281 -7.65625 4.46875 -7.65625 C 5.039062 -7.65625 5.566406 -7.550781 6.046875 -7.34375 C 6.535156 -7.132812 6.953125 -6.84375 7.296875 -6.46875 C 7.640625 -6.101562 7.890625 -5.679688 8.046875 -5.203125 L 7.34375 -5.203125 C 7.101562 -5.753906 6.734375 -6.191406 6.234375 -6.515625 C 5.742188 -6.835938 5.164062 -7 4.5 -7 C 3.875 -7 3.320312 -6.863281 2.84375 -6.59375 C 2.375 -6.320312 2.007812 -5.941406 1.75 -5.453125 C 1.488281 -4.960938 1.359375 -4.394531 1.359375 -3.75 C 1.359375 -3.113281 1.488281 -2.550781 1.75 -2.0625 C 2.007812 -1.570312 2.378906 -1.191406 2.859375 -0.921875 C 3.335938 -0.648438 3.882812 -0.515625 4.5 -0.515625 C 5.082031 -0.515625 5.59375 -0.632812 6.03125 -0.875 C 6.476562 -1.113281 6.835938 -1.445312 7.109375 -1.875 C 7.378906 -2.300781 7.535156 -2.785156 7.578125 -3.328125 L 4.25 -3.328125 L 4.25 -3.953125 L 8.28125 -3.953125 C 8.28125 -3.160156 8.125 -2.453125 7.8125 -1.828125 C 7.5 -1.210938 7.054688 -0.726562 6.484375 -0.375 C 5.921875 -0.03125 5.253906 0.140625 4.484375 0.140625 Z M 4.484375 0.140625 "/></g></g></g><g fill="#000000" fill-opacity="1"><g transform="translate(183.425228, 11.806986)"><g><path d="M 1.21875 0 L 1.21875 -7.515625 L 1.828125 -7.515625 L 6.390625 -1.125 L 6.390625 -7.515625 L 7.046875 -7.515625 L 7.046875 0 L 6.4375 0 L 1.859375 -6.390625 L 1.859375 0 Z M 1.21875 0 "/></g></g></g><g fill="#000000" fill-opacity="1"><g transform="translate(195.102721, 11.806986)"><g><path d="M 1.21875 0 L 1.21875 -7.515625 L 5.640625 -7.515625 L 5.640625 -6.90625 L 1.875 -6.90625 L 1.875 -4.125 L 5.359375 -4.125 L 5.359375 -3.53125 L 1.875 -3.53125 L 1.875 -0.609375 L 5.75 -0.609375 L 5.75 0 Z M 1.21875 0 "/></g></g></g><g fill="#000000" fill-opacity="1"><g transform="translate(205.064954, 11.806986)"><g><path d="M 1.21875 0 L 1.21875 -7.515625 L 4 -7.515625 C 4.5 -7.515625 4.9375 -7.414062 5.3125 -7.21875 C 5.6875 -7.03125 5.976562 -6.757812 6.1875 -6.40625 C 6.394531 -6.0625 6.5 -5.648438 6.5 -5.171875 C 6.5 -4.546875 6.328125 -4.03125 5.984375 -3.625 C 5.640625 -3.226562 5.171875 -2.976562 4.578125 -2.875 L 6.609375 0 L 5.828125 0 L 3.8125 -2.828125 L 1.875 -2.828125 L 1.875 0 Z M 1.875 -3.453125 L 3.921875 -3.453125 C 4.515625 -3.453125 4.976562 -3.601562 5.3125 -3.90625 C 5.65625 -4.21875 5.828125 -4.640625 5.828125 -5.171875 C 5.828125 -5.703125 5.65625 -6.117188 5.3125 -6.421875 C 4.976562 -6.734375 4.515625 -6.890625 3.921875 -6.890625 L 1.875 -6.890625 Z M 1.875 -3.453125 "/></g></g></g></g></g></g></g></g><g transform="matrix(1, 0, 0, 1, 385, 88)"><g clip-path="url(#b8e31da756)"><g clip-path="url(#fe862ead13)"><g mask="url(#8744a85698)"><g transform="matrix(1, 0, 0, 1, 0.000000000000056843, 10)"><g clip-path="url(#f3e796be91)"><g clip-path="url(#8e0d83e461)"><path fill="#abc3a8" d="M 353.925781 7.296875 C 345.578125 6.253906 337.195312 5.664062 328.78125 5.53125 C 215.28125 1.910156 122.023438 0.527344 8.46875 1.929688 L 1.066406 31.941406 C 114.183594 30.558594 214.765625 31.839844 327.882812 35.441406 C 335.269531 35.566406 342.625 36.078125 349.957031 36.976562 C 350.910156 27.089844 352.277344 17.167969 353.925781 7.296875 Z M 353.925781 7.296875 " fill-opacity="1" fill-rule="nonzero"/></g></g></g></g></g><g clip-path="url(#4def18d2f8)"><g mask="url(#0f740e5a90)"><g transform="matrix(1, 0, 0, 1, 0.000000000000056843, 1)"><g clip-path="url(#e8dc71d68b)"><g clip-path="url(#1b608d4ce6)"><path fill="#abc3a8" d="M 345.90625 9.042969 C 232.523438 3.273438 139.261719 1.039062 25.761719 0.273438 C 21.09375 0.273438 16.105469 0.273438 10.953125 0.390625 C 7.886719 10.726562 4.285156 20.933594 1.082031 31.21875 C 9.222656 30.382812 17.382812 30.074219 25.5625 30.285156 C 138.695312 31.054688 222.683594 32.855469 335.703125 38.625 Z M 345.90625 9.042969 " fill-opacity="1" fill-rule="nonzero"/></g></g></g></g></g><path fill="#5d5956" d="M 22.933594 21.960938 L 22.933594 26.113281 L 25.238281 23.730469 Z M 22.933594 21.960938 " fill-opacity="1" fill-rule="nonzero"/><path fill="#5d5956" d="M 30.507812 21.433594 L 23.9375 21.433594 L 27.222656 23.957031 Z M 30.507812 21.433594 " fill-opacity="1" fill-rule="nonzero"/><path fill="#5d5956" d="M 26.066406 24.363281 L 23.628906 26.871094 L 30.816406 26.871094 L 28.378906 24.363281 C 27.070312 25.367188 27.382812 25.375 26.066406 24.363281 Z M 26.066406 24.363281 " fill-opacity="1" fill-rule="nonzero"/><path fill="#5d5956" d="M 31.511719 26.113281 L 31.511719 21.960938 L 29.207031 23.730469 Z M 31.511719 26.113281 " fill-opacity="1" fill-rule="nonzero"/><g clip-path="url(#007ab0fe3c)"><path fill="#5d5956" d="M 27.222656 15.289062 C 26.640625 15.289062 26.0625 15.347656 25.492188 15.460938 C 24.921875 15.574219 24.367188 15.742188 23.832031 15.964844 C 23.292969 16.1875 22.78125 16.460938 22.300781 16.78125 C 21.816406 17.105469 21.367188 17.472656 20.957031 17.886719 C 20.542969 18.296875 20.175781 18.746094 19.855469 19.226562 C 19.53125 19.710938 19.257812 20.222656 19.035156 20.761719 C 18.8125 21.296875 18.644531 21.851562 18.53125 22.421875 C 18.417969 22.992188 18.359375 23.570312 18.359375 24.152344 C 18.359375 24.734375 18.417969 25.308594 18.53125 25.882812 C 18.644531 26.453125 18.8125 27.003906 19.035156 27.542969 C 19.257812 28.082031 19.53125 28.59375 19.855469 29.074219 C 20.175781 29.558594 20.542969 30.007812 20.957031 30.417969 C 21.367188 30.832031 21.816406 31.199219 22.300781 31.519531 C 22.78125 31.84375 23.292969 32.117188 23.832031 32.339844 C 24.367188 32.5625 24.921875 32.730469 25.492188 32.84375 C 26.0625 32.957031 26.640625 33.015625 27.222656 33.015625 C 27.804688 33.015625 28.382812 32.957031 28.953125 32.84375 C 29.523438 32.730469 30.078125 32.5625 30.613281 32.339844 C 31.152344 32.117188 31.664062 31.84375 32.148438 31.519531 C 32.628906 31.199219 33.078125 30.832031 33.488281 30.417969 C 33.902344 30.007812 34.269531 29.558594 34.589844 29.074219 C 34.914062 28.59375 35.1875 28.082031 35.410156 27.542969 C 35.632812 27.003906 35.800781 26.453125 35.914062 25.882812 C 36.027344 25.308594 36.085938 24.734375 36.085938 24.152344 C 36.085938 23.570312 36.027344 22.992188 35.914062 22.421875 C 35.800781 21.851562 35.632812 21.296875 35.410156 20.761719 C 35.1875 20.222656 34.914062 19.710938 34.589844 19.230469 C 34.265625 18.746094 33.898438 18.296875 33.488281 17.886719 C 33.078125 17.472656 32.628906 17.105469 32.144531 16.785156 C 31.660156 16.460938 31.152344 16.1875 30.613281 15.964844 C 30.078125 15.742188 29.523438 15.574219 28.953125 15.460938 C 28.378906 15.347656 27.804688 15.289062 27.222656 15.289062 Z M 32.539062 26.699219 C 32.539062 26.859375 32.511719 27.011719 32.449219 27.160156 C 32.386719 27.304688 32.300781 27.4375 32.1875 27.546875 C 32.078125 27.660156 31.949219 27.75 31.800781 27.808594 C 31.652344 27.871094 31.5 27.902344 31.339844 27.902344 L 23.105469 27.902344 C 22.945312 27.902344 22.792969 27.871094 22.644531 27.808594 C 22.5 27.75 22.367188 27.660156 22.257812 27.546875 C 22.144531 27.4375 22.058594 27.304688 21.996094 27.160156 C 21.933594 27.011719 21.90625 26.859375 21.90625 26.699219 L 21.90625 21.605469 C 21.90625 21.445312 21.941406 21.292969 22.003906 21.148438 C 22.0625 21.003906 22.152344 20.875 22.261719 20.761719 C 22.375 20.648438 22.503906 20.5625 22.648438 20.5 C 22.792969 20.4375 22.945312 20.402344 23.105469 20.398438 L 31.339844 20.398438 C 31.652344 20.40625 31.921875 20.511719 32.148438 20.726562 C 32.410156 20.960938 32.539062 21.253906 32.539062 21.605469 Z M 32.539062 26.699219 " fill-opacity="1" fill-rule="nonzero"/></g><path fill="#5d5956" d="M 178.996094 30.5 C 179.144531 30.5 179.265625 30.382812 179.265625 30.234375 C 179.265625 30.230469 179.265625 30.222656 179.265625 30.21875 C 179.265625 30.015625 179.144531 29.921875 178.898438 29.921875 L 178.496094 29.921875 L 178.496094 30.972656 L 178.648438 30.972656 L 178.648438 30.511719 L 178.832031 30.511719 L 178.835938 30.519531 L 179.125 30.972656 L 179.285156 30.972656 L 178.976562 30.503906 Z M 178.824219 30.394531 L 178.648438 30.394531 L 178.648438 30.039062 L 178.871094 30.039062 C 178.984375 30.039062 179.113281 30.058594 179.113281 30.207031 C 179.113281 30.382812 178.984375 30.394531 178.820312 30.394531 " fill-opacity="1" fill-rule="nonzero"/><g clip-path="url(#e5fb8659d6)"><path fill="#5d5956" d="M 175.0625 29.183594 L 172.921875 29.183594 L 172.921875 25.835938 C 172.921875 25.035156 172.90625 24.007812 171.808594 24.007812 C 170.710938 24.007812 170.523438 24.878906 170.523438 25.777344 L 170.523438 29.183594 L 168.386719 29.183594 L 168.386719 22.292969 L 170.441406 22.292969 L 170.441406 23.234375 L 170.46875 23.234375 C 170.886719 22.519531 171.667969 22.09375 172.496094 22.121094 C 174.664062 22.121094 175.0625 23.550781 175.0625 25.40625 Z M 165.972656 21.351562 C 165.285156 21.351562 164.730469 20.796875 164.730469 20.113281 C 164.730469 19.425781 165.285156 18.871094 165.96875 18.871094 C 166.65625 18.871094 167.210938 19.425781 167.210938 20.109375 C 167.210938 20.796875 166.65625 21.351562 165.972656 21.351562 M 167.042969 29.183594 L 164.898438 29.183594 L 164.898438 22.292969 L 167.042969 22.292969 Z M 176.128906 16.882812 L 163.824219 16.882812 C 163.242188 16.875 162.765625 17.34375 162.757812 17.921875 L 162.757812 30.277344 C 162.765625 30.859375 163.242188 31.328125 163.824219 31.320312 L 176.128906 31.320312 C 176.710938 31.328125 177.191406 30.859375 177.199219 30.277344 L 177.199219 17.921875 C 177.191406 17.339844 176.710938 16.875 176.128906 16.882812 " fill-opacity="1" fill-rule="nonzero"/></g><g clip-path="url(#d702bc3e41)"><path fill="#5d5956" d="M 178.839844 29.453125 C 178.296875 29.457031 177.859375 29.902344 177.867188 30.445312 C 177.871094 30.992188 178.316406 31.425781 178.859375 31.421875 C 179.402344 31.417969 179.839844 30.972656 179.835938 30.429688 C 179.828125 29.890625 179.394531 29.457031 178.859375 29.453125 L 178.839844 29.453125 M 178.839844 31.308594 C 178.363281 31.316406 177.972656 30.9375 177.960938 30.460938 C 177.953125 29.984375 178.335938 29.589844 178.8125 29.582031 C 179.289062 29.574219 179.679688 29.957031 179.6875 30.433594 L 179.6875 30.445312 C 179.699219 30.914062 179.328125 31.300781 178.863281 31.308594 L 178.839844 31.308594 " fill-opacity="1" fill-rule="nonzero"/></g><g fill="#000000" fill-opacity="1"><g transform="translate(43.055541, 26.93634)"><g><path d="M 4.8125 0 L 4.8125 -2.703125 L 1.4375 -2.703125 L 1.4375 0 L 0.9375 0 L 0.9375 -5.78125 L 1.4375 -5.78125 L 1.4375 -3.1875 L 4.8125 -3.1875 L 4.8125 -5.78125 L 5.328125 -5.78125 L 5.328125 0 Z M 4.8125 0 "/></g></g></g><g fill="#000000" fill-opacity="1"><g transform="translate(49.651993, 26.93634)"><g><path d="M 2.1875 0.0625 C 1.6875 0.0625 1.289062 -0.0507812 1 -0.28125 C 0.71875 -0.507812 0.578125 -0.816406 0.578125 -1.203125 C 0.578125 -1.585938 0.707031 -1.890625 0.96875 -2.109375 C 1.238281 -2.328125 1.59375 -2.4375 2.03125 -2.4375 L 3.90625 -2.4375 L 3.90625 -2.75 C 3.90625 -3.101562 3.785156 -3.382812 3.546875 -3.59375 C 3.304688 -3.8125 2.988281 -3.921875 2.59375 -3.921875 C 2.28125 -3.921875 2.003906 -3.84375 1.765625 -3.6875 C 1.523438 -3.539062 1.363281 -3.335938 1.28125 -3.078125 L 0.796875 -3.078125 C 0.898438 -3.472656 1.109375 -3.785156 1.421875 -4.015625 C 1.742188 -4.253906 2.132812 -4.375 2.59375 -4.375 C 2.945312 -4.375 3.257812 -4.304688 3.53125 -4.171875 C 3.800781 -4.035156 4.007812 -3.847656 4.15625 -3.609375 C 4.3125 -3.367188 4.390625 -3.085938 4.390625 -2.765625 L 4.390625 0 L 4 0 L 3.9375 -0.734375 C 3.75 -0.484375 3.503906 -0.285156 3.203125 -0.140625 C 2.898438 -0.00390625 2.5625 0.0625 2.1875 0.0625 Z M 1.0625 -1.21875 C 1.0625 -0.957031 1.160156 -0.75 1.359375 -0.59375 C 1.566406 -0.4375 1.847656 -0.359375 2.203125 -0.359375 C 2.535156 -0.359375 2.828125 -0.421875 3.078125 -0.546875 C 3.335938 -0.679688 3.539062 -0.859375 3.6875 -1.078125 C 3.84375 -1.296875 3.921875 -1.550781 3.921875 -1.84375 L 3.921875 -2.015625 L 2.046875 -2.015625 C 1.753906 -2.015625 1.515625 -1.941406 1.328125 -1.796875 C 1.148438 -1.648438 1.0625 -1.457031 1.0625 -1.21875 Z M 1.0625 -1.21875 "/></g></g></g><g fill="#000000" fill-opacity="1"><g transform="translate(55.143596, 26.93634)"><g><path d="M 0.84375 0 L 0.84375 -4.265625 L 1.328125 -4.265625 L 1.328125 0 Z M 0.65625 -5.484375 C 0.65625 -5.597656 0.691406 -5.695312 0.765625 -5.78125 C 0.847656 -5.863281 0.957031 -5.90625 1.09375 -5.90625 C 1.21875 -5.90625 1.320312 -5.863281 1.40625 -5.78125 C 1.488281 -5.695312 1.53125 -5.597656 1.53125 -5.484375 C 1.53125 -5.359375 1.488281 -5.253906 1.40625 -5.171875 C 1.320312 -5.085938 1.21875 -5.046875 1.09375 -5.046875 C 0.957031 -5.046875 0.847656 -5.085938 0.765625 -5.171875 C 0.691406 -5.253906 0.65625 -5.359375 0.65625 -5.484375 Z M 0.65625 -5.484375 "/></g></g></g><g fill="#000000" fill-opacity="1"><g transform="translate(57.66696, 26.93634)"><g><path d="M 0.84375 0 L 0.84375 -6.109375 L 1.328125 -6.109375 L 1.328125 0 Z M 0.84375 0 "/></g></g></g><g fill="#000000" fill-opacity="1"><g transform="translate(60.190324, 26.93634)"><g><path d="M 2.65625 0.109375 C 2.226562 0.109375 1.847656 0.015625 1.515625 -0.171875 C 1.191406 -0.367188 0.9375 -0.632812 0.75 -0.96875 C 0.570312 -1.3125 0.484375 -1.703125 0.484375 -2.140625 C 0.484375 -2.578125 0.570312 -2.960938 0.75 -3.296875 C 0.9375 -3.628906 1.191406 -3.890625 1.515625 -4.078125 C 1.847656 -4.273438 2.234375 -4.375 2.671875 -4.375 C 3.117188 -4.375 3.503906 -4.269531 3.828125 -4.0625 C 4.160156 -3.851562 4.414062 -3.566406 4.59375 -3.203125 C 4.769531 -2.847656 4.851562 -2.425781 4.84375 -1.9375 L 0.96875 -1.9375 C 1.007812 -1.457031 1.179688 -1.070312 1.484375 -0.78125 C 1.796875 -0.488281 2.1875 -0.34375 2.65625 -0.34375 C 3 -0.34375 3.300781 -0.421875 3.5625 -0.578125 C 3.832031 -0.734375 4.039062 -0.945312 4.1875 -1.21875 L 4.71875 -1.21875 C 4.550781 -0.8125 4.285156 -0.488281 3.921875 -0.25 C 3.554688 -0.0078125 3.132812 0.109375 2.65625 0.109375 Z M 0.96875 -2.359375 L 4.375 -2.359375 C 4.320312 -2.835938 4.140625 -3.21875 3.828125 -3.5 C 3.515625 -3.78125 3.128906 -3.921875 2.671875 -3.921875 C 2.191406 -3.921875 1.796875 -3.773438 1.484375 -3.484375 C 1.179688 -3.203125 1.007812 -2.828125 0.96875 -2.359375 Z M 0.96875 -2.359375 "/></g></g></g><g fill="#000000" fill-opacity="1"><g transform="translate(65.838582, 26.93634)"><g><path d="M 0.578125 1.65625 L 0.578125 1.203125 L 0.9375 1.203125 C 1.144531 1.203125 1.304688 1.179688 1.421875 1.140625 C 1.546875 1.109375 1.644531 1.039062 1.71875 0.9375 C 1.800781 0.84375 1.878906 0.707031 1.953125 0.53125 L 2.1875 -0.0625 L 0.171875 -4.265625 L 0.703125 -4.265625 L 1.703125 -2.15625 L 2.4375 -0.640625 L 3.046875 -2.15625 L 3.921875 -4.265625 L 4.421875 -4.265625 L 2.390625 0.71875 C 2.285156 0.96875 2.171875 1.160156 2.046875 1.296875 C 1.929688 1.429688 1.789062 1.523438 1.625 1.578125 C 1.457031 1.628906 1.242188 1.65625 0.984375 1.65625 Z M 0.578125 1.65625 "/></g></g></g><g fill="#000000" fill-opacity="1"><g transform="translate(70.777765, 26.93634)"><g><path d="M 0.84375 0 L 0.84375 -4.265625 L 1.25 -4.265625 L 1.296875 -3.4375 C 1.460938 -3.75 1.6875 -3.984375 1.96875 -4.140625 C 2.257812 -4.296875 2.570312 -4.375 2.90625 -4.375 C 3.46875 -4.375 3.90625 -4.191406 4.21875 -3.828125 C 4.539062 -3.460938 4.703125 -2.972656 4.703125 -2.359375 L 4.703125 0 L 4.234375 0 L 4.234375 -2.3125 C 4.234375 -2.800781 4.109375 -3.1875 3.859375 -3.46875 C 3.609375 -3.757812 3.273438 -3.90625 2.859375 -3.90625 C 2.554688 -3.90625 2.289062 -3.832031 2.0625 -3.6875 C 1.832031 -3.550781 1.648438 -3.351562 1.515625 -3.09375 C 1.390625 -2.84375 1.328125 -2.550781 1.328125 -2.21875 L 1.328125 0 Z M 0.84375 0 "/></g></g></g><g fill="#000000" fill-opacity="1"><g transform="translate(76.590925, 26.93634)"><g><path d="M 0.578125 1.65625 L 0.578125 1.203125 L 0.9375 1.203125 C 1.144531 1.203125 1.304688 1.179688 1.421875 1.140625 C 1.546875 1.109375 1.644531 1.039062 1.71875 0.9375 C 1.800781 0.84375 1.878906 0.707031 1.953125 0.53125 L 2.1875 -0.0625 L 0.171875 -4.265625 L 0.703125 -4.265625 L 1.703125 -2.15625 L 2.4375 -0.640625 L 3.046875 -2.15625 L 3.921875 -4.265625 L 4.421875 -4.265625 L 2.390625 0.71875 C 2.285156 0.96875 2.171875 1.160156 2.046875 1.296875 C 1.929688 1.429688 1.789062 1.523438 1.625 1.578125 C 1.457031 1.628906 1.242188 1.65625 0.984375 1.65625 Z M 0.578125 1.65625 "/></g></g></g><g fill="#000000" fill-opacity="1"><g transform="translate(81.530108, 26.93634)"><g><path d="M 2.65625 0.109375 C 2.226562 0.109375 1.847656 0.015625 1.515625 -0.171875 C 1.191406 -0.367188 0.9375 -0.632812 0.75 -0.96875 C 0.570312 -1.3125 0.484375 -1.703125 0.484375 -2.140625 C 0.484375 -2.578125 0.570312 -2.960938 0.75 -3.296875 C 0.9375 -3.628906 1.191406 -3.890625 1.515625 -4.078125 C 1.847656 -4.273438 2.226562 -4.375 2.65625 -4.375 C 3 -4.375 3.3125 -4.3125 3.59375 -4.1875 C 3.882812 -4.0625 4.128906 -3.882812 4.328125 -3.65625 C 4.523438 -3.425781 4.664062 -3.15625 4.75 -2.84375 L 4.265625 -2.84375 C 4.128906 -3.1875 3.914062 -3.445312 3.625 -3.625 C 3.34375 -3.8125 3.019531 -3.90625 2.65625 -3.90625 C 2.320312 -3.90625 2.023438 -3.828125 1.765625 -3.671875 C 1.515625 -3.523438 1.316406 -3.320312 1.171875 -3.0625 C 1.023438 -2.800781 0.953125 -2.492188 0.953125 -2.140625 C 0.953125 -1.785156 1.023438 -1.472656 1.171875 -1.203125 C 1.316406 -0.941406 1.515625 -0.734375 1.765625 -0.578125 C 2.023438 -0.429688 2.320312 -0.359375 2.65625 -0.359375 C 3.050781 -0.359375 3.390625 -0.457031 3.671875 -0.65625 C 3.960938 -0.863281 4.171875 -1.144531 4.296875 -1.5 L 4.796875 -1.5 C 4.648438 -1 4.382812 -0.601562 4 -0.3125 C 3.625 -0.03125 3.175781 0.109375 2.65625 0.109375 Z M 2.65625 0.109375 "/></g></g></g><g fill="#000000" fill-opacity="1"><g transform="translate(87.120653, 26.93634)"><g><path d="M 2.53125 0.109375 C 1.976562 0.109375 1.546875 -0.0703125 1.234375 -0.4375 C 0.921875 -0.800781 0.765625 -1.289062 0.765625 -1.90625 L 0.765625 -4.265625 L 1.234375 -4.265625 L 1.234375 -1.953125 C 1.234375 -1.460938 1.351562 -1.070312 1.59375 -0.78125 C 1.84375 -0.5 2.175781 -0.359375 2.59375 -0.359375 C 2.894531 -0.359375 3.15625 -0.425781 3.375 -0.5625 C 3.601562 -0.707031 3.78125 -0.910156 3.90625 -1.171875 C 4.03125 -1.429688 4.09375 -1.726562 4.09375 -2.0625 L 4.09375 -4.265625 L 4.578125 -4.265625 L 4.578125 0 L 4.171875 0 L 4.125 -0.828125 C 3.957031 -0.523438 3.734375 -0.289062 3.453125 -0.125 C 3.171875 0.03125 2.863281 0.109375 2.53125 0.109375 Z M 2.53125 0.109375 "/></g></g></g><g fill="#000000" fill-opacity="1"><g transform="translate(92.884347, 26.93634)"><g><path d="M 0.84375 0 L 0.84375 -4.265625 L 1.25 -4.265625 L 1.296875 -3.578125 C 1.597656 -4.109375 2.085938 -4.375 2.765625 -4.375 C 3.140625 -4.375 3.460938 -4.285156 3.734375 -4.109375 C 4.015625 -3.929688 4.210938 -3.675781 4.328125 -3.34375 C 4.472656 -3.675781 4.6875 -3.929688 4.96875 -4.109375 C 5.25 -4.285156 5.578125 -4.375 5.953125 -4.375 C 6.492188 -4.375 6.921875 -4.203125 7.234375 -3.859375 C 7.554688 -3.515625 7.71875 -3.046875 7.71875 -2.453125 L 7.71875 0 L 7.25 0 L 7.25 -2.375 C 7.25 -2.84375 7.125 -3.210938 6.875 -3.484375 C 6.632812 -3.765625 6.3125 -3.90625 5.90625 -3.90625 C 5.476562 -3.90625 5.140625 -3.765625 4.890625 -3.484375 C 4.640625 -3.203125 4.515625 -2.820312 4.515625 -2.34375 L 4.515625 0 L 4.046875 0 L 4.046875 -2.375 C 4.046875 -2.84375 3.921875 -3.210938 3.671875 -3.484375 C 3.429688 -3.765625 3.109375 -3.90625 2.703125 -3.90625 C 2.285156 -3.90625 1.953125 -3.765625 1.703125 -3.484375 C 1.453125 -3.203125 1.328125 -2.820312 1.328125 -2.34375 L 1.328125 0 Z M 0.84375 0 "/></g></g></g><g fill="#000000" fill-opacity="1"><g transform="translate(101.698726, 26.93634)"><g><path d="M 4.421875 1.703125 C 3.835938 1.703125 3.304688 1.609375 2.828125 1.421875 C 2.359375 1.234375 1.953125 0.972656 1.609375 0.640625 C 1.265625 0.304688 1 -0.0859375 0.8125 -0.546875 C 0.625 -1.003906 0.53125 -1.503906 0.53125 -2.046875 C 0.53125 -2.597656 0.625 -3.101562 0.8125 -3.5625 C 1 -4.019531 1.265625 -4.414062 1.609375 -4.75 C 1.960938 -5.082031 2.375 -5.34375 2.84375 -5.53125 C 3.3125 -5.71875 3.828125 -5.8125 4.390625 -5.8125 C 4.960938 -5.8125 5.484375 -5.710938 5.953125 -5.515625 C 6.429688 -5.328125 6.835938 -5.0625 7.171875 -4.71875 C 7.503906 -4.382812 7.757812 -3.992188 7.9375 -3.546875 C 8.113281 -3.109375 8.203125 -2.628906 8.203125 -2.109375 C 8.203125 -1.492188 8.078125 -1.035156 7.828125 -0.734375 C 7.585938 -0.429688 7.273438 -0.28125 6.890625 -0.28125 C 6.628906 -0.28125 6.410156 -0.347656 6.234375 -0.484375 C 6.054688 -0.617188 5.925781 -0.804688 5.84375 -1.046875 C 5.664062 -0.785156 5.441406 -0.585938 5.171875 -0.453125 C 4.898438 -0.316406 4.613281 -0.25 4.3125 -0.25 C 3.957031 -0.25 3.644531 -0.328125 3.375 -0.484375 C 3.101562 -0.640625 2.890625 -0.851562 2.734375 -1.125 C 2.578125 -1.40625 2.5 -1.722656 2.5 -2.078125 C 2.5 -2.421875 2.578125 -2.726562 2.734375 -3 C 2.890625 -3.28125 3.101562 -3.5 3.375 -3.65625 C 3.644531 -3.8125 3.957031 -3.890625 4.3125 -3.890625 C 4.644531 -3.890625 4.929688 -3.816406 5.171875 -3.671875 C 5.410156 -3.523438 5.597656 -3.347656 5.734375 -3.140625 L 5.78125 -3.734375 L 6.171875 -3.734375 L 6.171875 -1.609375 C 6.171875 -1.347656 6.234375 -1.132812 6.359375 -0.96875 C 6.492188 -0.800781 6.671875 -0.71875 6.890625 -0.71875 C 7.148438 -0.71875 7.351562 -0.828125 7.5 -1.046875 C 7.65625 -1.273438 7.734375 -1.628906 7.734375 -2.109375 C 7.734375 -2.742188 7.59375 -3.304688 7.3125 -3.796875 C 7.039062 -4.285156 6.65625 -4.664062 6.15625 -4.9375 C 5.65625 -5.21875 5.066406 -5.359375 4.390625 -5.359375 C 3.710938 -5.359375 3.117188 -5.210938 2.609375 -4.921875 C 2.109375 -4.640625 1.71875 -4.25 1.4375 -3.75 C 1.15625 -3.257812 1.015625 -2.691406 1.015625 -2.046875 C 1.015625 -1.398438 1.15625 -0.828125 1.4375 -0.328125 C 1.71875 0.160156 2.113281 0.539062 2.625 0.8125 C 3.144531 1.09375 3.742188 1.234375 4.421875 1.234375 C 4.773438 1.234375 5.113281 1.191406 5.4375 1.109375 C 5.769531 1.035156 6.050781 0.929688 6.28125 0.796875 L 6.28125 1.28125 C 5.738281 1.5625 5.117188 1.703125 4.421875 1.703125 Z M 2.96875 -2.078125 C 2.96875 -1.804688 3.023438 -1.566406 3.140625 -1.359375 C 3.253906 -1.148438 3.414062 -0.984375 3.625 -0.859375 C 3.832031 -0.742188 4.070312 -0.6875 4.34375 -0.6875 C 4.625 -0.6875 4.863281 -0.742188 5.0625 -0.859375 C 5.269531 -0.984375 5.429688 -1.148438 5.546875 -1.359375 C 5.660156 -1.566406 5.71875 -1.804688 5.71875 -2.078125 C 5.71875 -2.335938 5.660156 -2.570312 5.546875 -2.78125 C 5.429688 -2.988281 5.269531 -3.15625 5.0625 -3.28125 C 4.863281 -3.40625 4.625 -3.46875 4.34375 -3.46875 C 4.070312 -3.46875 3.832031 -3.40625 3.625 -3.28125 C 3.414062 -3.15625 3.253906 -2.988281 3.140625 -2.78125 C 3.023438 -2.570312 2.96875 -2.335938 2.96875 -2.078125 Z M 2.96875 -2.078125 "/></g></g></g><g fill="#000000" fill-opacity="1"><g transform="translate(110.776949, 26.93634)"><g><path d="M 2.71875 1.75 C 2.195312 1.75 1.753906 1.617188 1.390625 1.359375 C 1.035156 1.109375 0.816406 0.769531 0.734375 0.34375 L 1.21875 0.34375 C 1.289062 0.632812 1.460938 0.863281 1.734375 1.03125 C 2.003906 1.207031 2.332031 1.296875 2.71875 1.296875 C 3.207031 1.296875 3.597656 1.160156 3.890625 0.890625 C 4.179688 0.628906 4.328125 0.269531 4.328125 -0.1875 L 4.328125 -0.875 C 4.140625 -0.625 3.894531 -0.421875 3.59375 -0.265625 C 3.300781 -0.117188 2.972656 -0.046875 2.609375 -0.046875 C 2.203125 -0.046875 1.835938 -0.140625 1.515625 -0.328125 C 1.191406 -0.515625 0.9375 -0.769531 0.75 -1.09375 C 0.570312 -1.414062 0.484375 -1.789062 0.484375 -2.21875 C 0.484375 -2.632812 0.570312 -3.003906 0.75 -3.328125 C 0.9375 -3.648438 1.191406 -3.90625 1.515625 -4.09375 C 1.835938 -4.28125 2.203125 -4.375 2.609375 -4.375 C 2.984375 -4.375 3.320312 -4.296875 3.625 -4.140625 C 3.925781 -3.984375 4.171875 -3.769531 4.359375 -3.5 L 4.40625 -4.265625 L 4.8125 -4.265625 L 4.8125 -0.171875 C 4.8125 0.203125 4.722656 0.535156 4.546875 0.828125 C 4.367188 1.117188 4.125 1.34375 3.8125 1.5 C 3.5 1.664062 3.132812 1.75 2.71875 1.75 Z M 0.953125 -2.21875 C 0.953125 -1.882812 1.023438 -1.585938 1.171875 -1.328125 C 1.316406 -1.078125 1.515625 -0.878906 1.765625 -0.734375 C 2.023438 -0.585938 2.328125 -0.515625 2.671875 -0.515625 C 3.003906 -0.515625 3.296875 -0.585938 3.546875 -0.734375 C 3.796875 -0.878906 3.992188 -1.078125 4.140625 -1.328125 C 4.285156 -1.585938 4.359375 -1.882812 4.359375 -2.21875 C 4.359375 -2.550781 4.285156 -2.84375 4.140625 -3.09375 C 3.992188 -3.34375 3.796875 -3.539062 3.546875 -3.6875 C 3.296875 -3.832031 3.003906 -3.90625 2.671875 -3.90625 C 2.328125 -3.90625 2.023438 -3.832031 1.765625 -3.6875 C 1.515625 -3.539062 1.316406 -3.34375 1.171875 -3.09375 C 1.023438 -2.84375 0.953125 -2.550781 0.953125 -2.21875 Z M 0.953125 -2.21875 "/></g></g></g><g fill="#000000" fill-opacity="1"><g transform="translate(116.779753, 26.93634)"><g><path d="M 0.84375 0 L 0.84375 -4.265625 L 1.25 -4.265625 L 1.296875 -3.578125 C 1.597656 -4.109375 2.085938 -4.375 2.765625 -4.375 C 3.140625 -4.375 3.460938 -4.285156 3.734375 -4.109375 C 4.015625 -3.929688 4.210938 -3.675781 4.328125 -3.34375 C 4.472656 -3.675781 4.6875 -3.929688 4.96875 -4.109375 C 5.25 -4.285156 5.578125 -4.375 5.953125 -4.375 C 6.492188 -4.375 6.921875 -4.203125 7.234375 -3.859375 C 7.554688 -3.515625 7.71875 -3.046875 7.71875 -2.453125 L 7.71875 0 L 7.25 0 L 7.25 -2.375 C 7.25 -2.84375 7.125 -3.210938 6.875 -3.484375 C 6.632812 -3.765625 6.3125 -3.90625 5.90625 -3.90625 C 5.476562 -3.90625 5.140625 -3.765625 4.890625 -3.484375 C 4.640625 -3.203125 4.515625 -2.820312 4.515625 -2.34375 L 4.515625 0 L 4.046875 0 L 4.046875 -2.375 C 4.046875 -2.84375 3.921875 -3.210938 3.671875 -3.484375 C 3.429688 -3.765625 3.109375 -3.90625 2.703125 -3.90625 C 2.285156 -3.90625 1.953125 -3.765625 1.703125 -3.484375 C 1.453125 -3.203125 1.328125 -2.820312 1.328125 -2.34375 L 1.328125 0 Z M 0.84375 0 "/></g></g></g><g fill="#000000" fill-opacity="1"><g transform="translate(125.594133, 26.93634)"><g><path d="M 2.1875 0.0625 C 1.6875 0.0625 1.289062 -0.0507812 1 -0.28125 C 0.71875 -0.507812 0.578125 -0.816406 0.578125 -1.203125 C 0.578125 -1.585938 0.707031 -1.890625 0.96875 -2.109375 C 1.238281 -2.328125 1.59375 -2.4375 2.03125 -2.4375 L 3.90625 -2.4375 L 3.90625 -2.75 C 3.90625 -3.101562 3.785156 -3.382812 3.546875 -3.59375 C 3.304688 -3.8125 2.988281 -3.921875 2.59375 -3.921875 C 2.28125 -3.921875 2.003906 -3.84375 1.765625 -3.6875 C 1.523438 -3.539062 1.363281 -3.335938 1.28125 -3.078125 L 0.796875 -3.078125 C 0.898438 -3.472656 1.109375 -3.785156 1.421875 -4.015625 C 1.742188 -4.253906 2.132812 -4.375 2.59375 -4.375 C 2.945312 -4.375 3.257812 -4.304688 3.53125 -4.171875 C 3.800781 -4.035156 4.007812 -3.847656 4.15625 -3.609375 C 4.3125 -3.367188 4.390625 -3.085938 4.390625 -2.765625 L 4.390625 0 L 4 0 L 3.9375 -0.734375 C 3.75 -0.484375 3.503906 -0.285156 3.203125 -0.140625 C 2.898438 -0.00390625 2.5625 0.0625 2.1875 0.0625 Z M 1.0625 -1.21875 C 1.0625 -0.957031 1.160156 -0.75 1.359375 -0.59375 C 1.566406 -0.4375 1.847656 -0.359375 2.203125 -0.359375 C 2.535156 -0.359375 2.828125 -0.421875 3.078125 -0.546875 C 3.335938 -0.679688 3.539062 -0.859375 3.6875 -1.078125 C 3.84375 -1.296875 3.921875 -1.550781 3.921875 -1.84375 L 3.921875 -2.015625 L 2.046875 -2.015625 C 1.753906 -2.015625 1.515625 -1.941406 1.328125 -1.796875 C 1.148438 -1.648438 1.0625 -1.457031 1.0625 -1.21875 Z M 1.0625 -1.21875 "/></g></g></g><g fill="#000000" fill-opacity="1"><g transform="translate(131.085736, 26.93634)"><g><path d="M 0.84375 0 L 0.84375 -4.265625 L 1.328125 -4.265625 L 1.328125 0 Z M 0.65625 -5.484375 C 0.65625 -5.597656 0.691406 -5.695312 0.765625 -5.78125 C 0.847656 -5.863281 0.957031 -5.90625 1.09375 -5.90625 C 1.21875 -5.90625 1.320312 -5.863281 1.40625 -5.78125 C 1.488281 -5.695312 1.53125 -5.597656 1.53125 -5.484375 C 1.53125 -5.359375 1.488281 -5.253906 1.40625 -5.171875 C 1.320312 -5.085938 1.21875 -5.046875 1.09375 -5.046875 C 0.957031 -5.046875 0.847656 -5.085938 0.765625 -5.171875 C 0.691406 -5.253906 0.65625 -5.359375 0.65625 -5.484375 Z M 0.65625 -5.484375 "/></g></g></g><g fill="#000000" fill-opacity="1"><g transform="translate(133.6091, 26.93634)"><g><path d="M 0.84375 0 L 0.84375 -6.109375 L 1.328125 -6.109375 L 1.328125 0 Z M 0.84375 0 "/></g></g></g><g fill="#000000" fill-opacity="1"><g transform="translate(136.132464, 26.93634)"><g><path d="M 1 0.046875 C 0.863281 0.046875 0.753906 0.00390625 0.671875 -0.078125 C 0.597656 -0.160156 0.5625 -0.257812 0.5625 -0.375 C 0.5625 -0.5 0.597656 -0.601562 0.671875 -0.6875 C 0.753906 -0.769531 0.863281 -0.8125 1 -0.8125 C 1.132812 -0.8125 1.238281 -0.769531 1.3125 -0.6875 C 1.394531 -0.601562 1.4375 -0.5 1.4375 -0.375 C 1.4375 -0.257812 1.394531 -0.160156 1.3125 -0.078125 C 1.238281 0.00390625 1.132812 0.046875 1 0.046875 Z M 1 0.046875 "/></g></g></g><g fill="#000000" fill-opacity="1"><g transform="translate(138.47444, 26.93634)"><g><path d="M 2.65625 0.109375 C 2.226562 0.109375 1.847656 0.015625 1.515625 -0.171875 C 1.191406 -0.367188 0.9375 -0.632812 0.75 -0.96875 C 0.570312 -1.3125 0.484375 -1.703125 0.484375 -2.140625 C 0.484375 -2.578125 0.570312 -2.960938 0.75 -3.296875 C 0.9375 -3.628906 1.191406 -3.890625 1.515625 -4.078125 C 1.847656 -4.273438 2.226562 -4.375 2.65625 -4.375 C 3 -4.375 3.3125 -4.3125 3.59375 -4.1875 C 3.882812 -4.0625 4.128906 -3.882812 4.328125 -3.65625 C 4.523438 -3.425781 4.664062 -3.15625 4.75 -2.84375 L 4.265625 -2.84375 C 4.128906 -3.1875 3.914062 -3.445312 3.625 -3.625 C 3.34375 -3.8125 3.019531 -3.90625 2.65625 -3.90625 C 2.320312 -3.90625 2.023438 -3.828125 1.765625 -3.671875 C 1.515625 -3.523438 1.316406 -3.320312 1.171875 -3.0625 C 1.023438 -2.800781 0.953125 -2.492188 0.953125 -2.140625 C 0.953125 -1.785156 1.023438 -1.472656 1.171875 -1.203125 C 1.316406 -0.941406 1.515625 -0.734375 1.765625 -0.578125 C 2.023438 -0.429688 2.320312 -0.359375 2.65625 -0.359375 C 3.050781 -0.359375 3.390625 -0.457031 3.671875 -0.65625 C 3.960938 -0.863281 4.171875 -1.144531 4.296875 -1.5 L 4.796875 -1.5 C 4.648438 -1 4.382812 -0.601562 4 -0.3125 C 3.625 -0.03125 3.175781 0.109375 2.65625 0.109375 Z M 2.65625 0.109375 "/></g></g></g><g fill="#000000" fill-opacity="1"><g transform="translate(144.064984, 26.93634)"><g><path d="M 2.71875 0.109375 C 2.28125 0.109375 1.890625 0.015625 1.546875 -0.171875 C 1.210938 -0.367188 0.953125 -0.632812 0.765625 -0.96875 C 0.578125 -1.3125 0.484375 -1.703125 0.484375 -2.140625 C 0.484375 -2.578125 0.578125 -2.960938 0.765625 -3.296875 C 0.953125 -3.628906 1.210938 -3.890625 1.546875 -4.078125 C 1.890625 -4.273438 2.28125 -4.375 2.71875 -4.375 C 3.15625 -4.375 3.539062 -4.273438 3.875 -4.078125 C 4.21875 -3.890625 4.484375 -3.628906 4.671875 -3.296875 C 4.859375 -2.960938 4.953125 -2.578125 4.953125 -2.140625 C 4.953125 -1.703125 4.859375 -1.3125 4.671875 -0.96875 C 4.484375 -0.632812 4.21875 -0.367188 3.875 -0.171875 C 3.539062 0.015625 3.15625 0.109375 2.71875 0.109375 Z M 0.953125 -2.140625 C 0.953125 -1.785156 1.023438 -1.472656 1.171875 -1.203125 C 1.328125 -0.941406 1.535156 -0.734375 1.796875 -0.578125 C 2.066406 -0.429688 2.375 -0.359375 2.71875 -0.359375 C 3.070312 -0.359375 3.378906 -0.429688 3.640625 -0.578125 C 3.898438 -0.734375 4.101562 -0.941406 4.25 -1.203125 C 4.40625 -1.472656 4.484375 -1.785156 4.484375 -2.140625 C 4.484375 -2.492188 4.40625 -2.800781 4.25 -3.0625 C 4.101562 -3.320312 3.898438 -3.523438 3.640625 -3.671875 C 3.378906 -3.828125 3.070312 -3.90625 2.71875 -3.90625 C 2.375 -3.90625 2.066406 -3.828125 1.796875 -3.671875 C 1.535156 -3.523438 1.328125 -3.320312 1.171875 -3.0625 C 1.023438 -2.800781 0.953125 -2.492188 0.953125 -2.140625 Z M 0.953125 -2.140625 "/></g></g></g><g fill="#000000" fill-opacity="1"><g transform="translate(149.845164, 26.93634)"><g><path d="M 0.84375 0 L 0.84375 -4.265625 L 1.25 -4.265625 L 1.296875 -3.578125 C 1.597656 -4.109375 2.085938 -4.375 2.765625 -4.375 C 3.140625 -4.375 3.460938 -4.285156 3.734375 -4.109375 C 4.015625 -3.929688 4.210938 -3.675781 4.328125 -3.34375 C 4.472656 -3.675781 4.6875 -3.929688 4.96875 -4.109375 C 5.25 -4.285156 5.578125 -4.375 5.953125 -4.375 C 6.492188 -4.375 6.921875 -4.203125 7.234375 -3.859375 C 7.554688 -3.515625 7.71875 -3.046875 7.71875 -2.453125 L 7.71875 0 L 7.25 0 L 7.25 -2.375 C 7.25 -2.84375 7.125 -3.210938 6.875 -3.484375 C 6.632812 -3.765625 6.3125 -3.90625 5.90625 -3.90625 C 5.476562 -3.90625 5.140625 -3.765625 4.890625 -3.484375 C 4.640625 -3.203125 4.515625 -2.820312 4.515625 -2.34375 L 4.515625 0 L 4.046875 0 L 4.046875 -2.375 C 4.046875 -2.84375 3.921875 -3.210938 3.671875 -3.484375 C 3.429688 -3.765625 3.109375 -3.90625 2.703125 -3.90625 C 2.285156 -3.90625 1.953125 -3.765625 1.703125 -3.484375 C 1.453125 -3.203125 1.328125 -2.820312 1.328125 -2.34375 L 1.328125 0 Z M 0.84375 0 "/></g></g></g><g fill="#000000" fill-opacity="1"><g transform="translate(179.8432, 26.93634)"><g><path d="M 1.71875 0 L 0.1875 -4.265625 L 0.6875 -4.265625 L 1.953125 -0.71875 L 2.5625 -2.265625 L 3.328125 -4.265625 L 3.765625 -4.265625 L 4.546875 -2.265625 L 5.140625 -0.71875 L 6.421875 -4.265625 L 6.921875 -4.265625 L 5.375 0 L 4.921875 0 L 4.1875 -1.90625 L 3.546875 -3.5625 L 2.171875 0 Z M 1.71875 0 "/></g></g></g><g fill="#000000" fill-opacity="1"><g transform="translate(187.288896, 26.93634)"><g><path d="M 1.71875 0 L 0.1875 -4.265625 L 0.6875 -4.265625 L 1.953125 -0.71875 L 2.5625 -2.265625 L 3.328125 -4.265625 L 3.765625 -4.265625 L 4.546875 -2.265625 L 5.140625 -0.71875 L 6.421875 -4.265625 L 6.921875 -4.265625 L 5.375 0 L 4.921875 0 L 4.1875 -1.90625 L 3.546875 -3.5625 L 2.171875 0 Z M 1.71875 0 "/></g></g></g><g fill="#000000" fill-opacity="1"><g transform="translate(194.734591, 26.93634)"><g><path d="M 1.71875 0 L 0.1875 -4.265625 L 0.6875 -4.265625 L 1.953125 -0.71875 L 2.5625 -2.265625 L 3.328125 -4.265625 L 3.765625 -4.265625 L 4.546875 -2.265625 L 5.140625 -0.71875 L 6.421875 -4.265625 L 6.921875 -4.265625 L 5.375 0 L 4.921875 0 L 4.1875 -1.90625 L 3.546875 -3.5625 L 2.171875 0 Z M 1.71875 0 "/></g></g></g><g fill="#000000" fill-opacity="1"><g transform="translate(202.180287, 26.93634)"><g><path d="M 1 0.046875 C 0.863281 0.046875 0.753906 0.00390625 0.671875 -0.078125 C 0.597656 -0.160156 0.5625 -0.257812 0.5625 -0.375 C 0.5625 -0.5 0.597656 -0.601562 0.671875 -0.6875 C 0.753906 -0.769531 0.863281 -0.8125 1 -0.8125 C 1.132812 -0.8125 1.238281 -0.769531 1.3125 -0.6875 C 1.394531 -0.601562 1.4375 -0.5 1.4375 -0.375 C 1.4375 -0.257812 1.394531 -0.160156 1.3125 -0.078125 C 1.238281 0.00390625 1.132812 0.046875 1 0.046875 Z M 1 0.046875 "/></g></g></g><g fill="#000000" fill-opacity="1"><g transform="translate(204.522263, 26.93634)"><g><path d="M 0.84375 0 L 0.84375 -6.109375 L 1.328125 -6.109375 L 1.328125 0 Z M 0.84375 0 "/></g></g></g><g fill="#000000" fill-opacity="1"><g transform="translate(207.045627, 26.93634)"><g><path d="M 0.84375 0 L 0.84375 -4.265625 L 1.328125 -4.265625 L 1.328125 0 Z M 0.65625 -5.484375 C 0.65625 -5.597656 0.691406 -5.695312 0.765625 -5.78125 C 0.847656 -5.863281 0.957031 -5.90625 1.09375 -5.90625 C 1.21875 -5.90625 1.320312 -5.863281 1.40625 -5.78125 C 1.488281 -5.695312 1.53125 -5.597656 1.53125 -5.484375 C 1.53125 -5.359375 1.488281 -5.253906 1.40625 -5.171875 C 1.320312 -5.085938 1.21875 -5.046875 1.09375 -5.046875 C 0.957031 -5.046875 0.847656 -5.085938 0.765625 -5.171875 C 0.691406 -5.253906 0.65625 -5.359375 0.65625 -5.484375 Z M 0.65625 -5.484375 "/></g></g></g><g fill="#000000" fill-opacity="1"><g transform="translate(209.568991, 26.93634)"><g><path d="M 0.84375 0 L 0.84375 -4.265625 L 1.25 -4.265625 L 1.296875 -3.4375 C 1.460938 -3.75 1.6875 -3.984375 1.96875 -4.140625 C 2.257812 -4.296875 2.570312 -4.375 2.90625 -4.375 C 3.46875 -4.375 3.90625 -4.191406 4.21875 -3.828125 C 4.539062 -3.460938 4.703125 -2.972656 4.703125 -2.359375 L 4.703125 0 L 4.234375 0 L 4.234375 -2.3125 C 4.234375 -2.800781 4.109375 -3.1875 3.859375 -3.46875 C 3.609375 -3.757812 3.273438 -3.90625 2.859375 -3.90625 C 2.554688 -3.90625 2.289062 -3.832031 2.0625 -3.6875 C 1.832031 -3.550781 1.648438 -3.351562 1.515625 -3.09375 C 1.390625 -2.84375 1.328125 -2.550781 1.328125 -2.21875 L 1.328125 0 Z M 0.84375 0 "/></g></g></g><g fill="#000000" fill-opacity="1"><g transform="translate(215.382152, 26.93634)"><g><path d="M 0.84375 0 L 0.84375 -6.109375 L 1.328125 -6.109375 L 1.328125 -2.390625 L 1.953125 -2.390625 C 2.210938 -2.390625 2.429688 -2.414062 2.609375 -2.46875 C 2.785156 -2.53125 2.929688 -2.628906 3.046875 -2.765625 C 3.171875 -2.898438 3.273438 -3.082031 3.359375 -3.3125 L 3.734375 -4.265625 L 4.234375 -4.265625 L 3.8125 -3.140625 C 3.71875 -2.898438 3.609375 -2.703125 3.484375 -2.546875 C 3.367188 -2.390625 3.226562 -2.265625 3.0625 -2.171875 L 4.453125 0 L 3.875 0 L 2.609375 -2 C 2.515625 -1.976562 2.410156 -1.960938 2.296875 -1.953125 C 2.179688 -1.953125 2.0625 -1.953125 1.9375 -1.953125 L 1.328125 -1.953125 L 1.328125 0 Z M 0.84375 0 "/></g></g></g><g fill="#000000" fill-opacity="1"><g transform="translate(220.502723, 26.93634)"><g><path d="M 2.65625 0.109375 C 2.226562 0.109375 1.847656 0.015625 1.515625 -0.171875 C 1.191406 -0.367188 0.9375 -0.632812 0.75 -0.96875 C 0.570312 -1.3125 0.484375 -1.703125 0.484375 -2.140625 C 0.484375 -2.578125 0.570312 -2.960938 0.75 -3.296875 C 0.9375 -3.628906 1.191406 -3.890625 1.515625 -4.078125 C 1.847656 -4.273438 2.234375 -4.375 2.671875 -4.375 C 3.117188 -4.375 3.503906 -4.269531 3.828125 -4.0625 C 4.160156 -3.851562 4.414062 -3.566406 4.59375 -3.203125 C 4.769531 -2.847656 4.851562 -2.425781 4.84375 -1.9375 L 0.96875 -1.9375 C 1.007812 -1.457031 1.179688 -1.070312 1.484375 -0.78125 C 1.796875 -0.488281 2.1875 -0.34375 2.65625 -0.34375 C 3 -0.34375 3.300781 -0.421875 3.5625 -0.578125 C 3.832031 -0.734375 4.039062 -0.945312 4.1875 -1.21875 L 4.71875 -1.21875 C 4.550781 -0.8125 4.285156 -0.488281 3.921875 -0.25 C 3.554688 -0.0078125 3.132812 0.109375 2.65625 0.109375 Z M 0.96875 -2.359375 L 4.375 -2.359375 C 4.320312 -2.835938 4.140625 -3.21875 3.828125 -3.5 C 3.515625 -3.78125 3.128906 -3.921875 2.671875 -3.921875 C 2.191406 -3.921875 1.796875 -3.773438 1.484375 -3.484375 C 1.179688 -3.203125 1.007812 -2.828125 0.96875 -2.359375 Z M 0.96875 -2.359375 "/></g></g></g><g fill="#000000" fill-opacity="1"><g transform="translate(226.150981, 26.93634)"><g><path d="M 2.671875 0.109375 C 2.234375 0.109375 1.851562 0.0078125 1.53125 -0.1875 C 1.207031 -0.382812 0.953125 -0.648438 0.765625 -0.984375 C 0.578125 -1.328125 0.484375 -1.710938 0.484375 -2.140625 C 0.484375 -2.566406 0.578125 -2.945312 0.765625 -3.28125 C 0.953125 -3.625 1.207031 -3.890625 1.53125 -4.078125 C 1.851562 -4.273438 2.234375 -4.375 2.671875 -4.375 C 3.054688 -4.375 3.40625 -4.289062 3.71875 -4.125 C 4.03125 -3.96875 4.28125 -3.75 4.46875 -3.46875 L 4.46875 -6.109375 L 4.9375 -6.109375 L 4.9375 0 L 4.546875 0 L 4.484375 -0.84375 C 4.296875 -0.550781 4.046875 -0.316406 3.734375 -0.140625 C 3.421875 0.0234375 3.066406 0.109375 2.671875 0.109375 Z M 0.953125 -2.140625 C 0.953125 -1.785156 1.023438 -1.472656 1.171875 -1.203125 C 1.328125 -0.941406 1.535156 -0.734375 1.796875 -0.578125 C 2.066406 -0.429688 2.375 -0.359375 2.71875 -0.359375 C 3.070312 -0.359375 3.378906 -0.429688 3.640625 -0.578125 C 3.898438 -0.734375 4.101562 -0.941406 4.25 -1.203125 C 4.40625 -1.472656 4.484375 -1.785156 4.484375 -2.140625 C 4.484375 -2.484375 4.40625 -2.785156 4.25 -3.046875 C 4.101562 -3.316406 3.898438 -3.523438 3.640625 -3.671875 C 3.378906 -3.828125 3.070312 -3.90625 2.71875 -3.90625 C 2.375 -3.90625 2.066406 -3.828125 1.796875 -3.671875 C 1.535156 -3.523438 1.328125 -3.316406 1.171875 -3.046875 C 1.023438 -2.785156 0.953125 -2.484375 0.953125 -2.140625 Z M 0.953125 -2.140625 "/></g></g></g><g fill="#000000" fill-opacity="1"><g transform="translate(232.285706, 26.93634)"><g><path d="M 0.84375 0 L 0.84375 -4.265625 L 1.328125 -4.265625 L 1.328125 0 Z M 0.65625 -5.484375 C 0.65625 -5.597656 0.691406 -5.695312 0.765625 -5.78125 C 0.847656 -5.863281 0.957031 -5.90625 1.09375 -5.90625 C 1.21875 -5.90625 1.320312 -5.863281 1.40625 -5.78125 C 1.488281 -5.695312 1.53125 -5.597656 1.53125 -5.484375 C 1.53125 -5.359375 1.488281 -5.253906 1.40625 -5.171875 C 1.320312 -5.085938 1.21875 -5.046875 1.09375 -5.046875 C 0.957031 -5.046875 0.847656 -5.085938 0.765625 -5.171875 C 0.691406 -5.253906 0.65625 -5.359375 0.65625 -5.484375 Z M 0.65625 -5.484375 "/></g></g></g><g fill="#000000" fill-opacity="1"><g transform="translate(234.809071, 26.93634)"><g><path d="M 0.84375 0 L 0.84375 -4.265625 L 1.25 -4.265625 L 1.296875 -3.4375 C 1.460938 -3.75 1.6875 -3.984375 1.96875 -4.140625 C 2.257812 -4.296875 2.570312 -4.375 2.90625 -4.375 C 3.46875 -4.375 3.90625 -4.191406 4.21875 -3.828125 C 4.539062 -3.460938 4.703125 -2.972656 4.703125 -2.359375 L 4.703125 0 L 4.234375 0 L 4.234375 -2.3125 C 4.234375 -2.800781 4.109375 -3.1875 3.859375 -3.46875 C 3.609375 -3.757812 3.273438 -3.90625 2.859375 -3.90625 C 2.554688 -3.90625 2.289062 -3.832031 2.0625 -3.6875 C 1.832031 -3.550781 1.648438 -3.351562 1.515625 -3.09375 C 1.390625 -2.84375 1.328125 -2.550781 1.328125 -2.21875 L 1.328125 0 Z M 0.84375 0 "/></g></g></g><g fill="#000000" fill-opacity="1"><g transform="translate(240.622231, 26.93634)"><g><path d="M 1 0.046875 C 0.863281 0.046875 0.753906 0.00390625 0.671875 -0.078125 C 0.597656 -0.160156 0.5625 -0.257812 0.5625 -0.375 C 0.5625 -0.5 0.597656 -0.601562 0.671875 -0.6875 C 0.753906 -0.769531 0.863281 -0.8125 1 -0.8125 C 1.132812 -0.8125 1.238281 -0.769531 1.3125 -0.6875 C 1.394531 -0.601562 1.4375 -0.5 1.4375 -0.375 C 1.4375 -0.257812 1.394531 -0.160156 1.3125 -0.078125 C 1.238281 0.00390625 1.132812 0.046875 1 0.046875 Z M 1 0.046875 "/></g></g></g><g fill="#000000" fill-opacity="1"><g transform="translate(242.964207, 26.93634)"><g><path d="M 2.65625 0.109375 C 2.226562 0.109375 1.847656 0.015625 1.515625 -0.171875 C 1.191406 -0.367188 0.9375 -0.632812 0.75 -0.96875 C 0.570312 -1.3125 0.484375 -1.703125 0.484375 -2.140625 C 0.484375 -2.578125 0.570312 -2.960938 0.75 -3.296875 C 0.9375 -3.628906 1.191406 -3.890625 1.515625 -4.078125 C 1.847656 -4.273438 2.226562 -4.375 2.65625 -4.375 C 3 -4.375 3.3125 -4.3125 3.59375 -4.1875 C 3.882812 -4.0625 4.128906 -3.882812 4.328125 -3.65625 C 4.523438 -3.425781 4.664062 -3.15625 4.75 -2.84375 L 4.265625 -2.84375 C 4.128906 -3.1875 3.914062 -3.445312 3.625 -3.625 C 3.34375 -3.8125 3.019531 -3.90625 2.65625 -3.90625 C 2.320312 -3.90625 2.023438 -3.828125 1.765625 -3.671875 C 1.515625 -3.523438 1.316406 -3.320312 1.171875 -3.0625 C 1.023438 -2.800781 0.953125 -2.492188 0.953125 -2.140625 C 0.953125 -1.785156 1.023438 -1.472656 1.171875 -1.203125 C 1.316406 -0.941406 1.515625 -0.734375 1.765625 -0.578125 C 2.023438 -0.429688 2.320312 -0.359375 2.65625 -0.359375 C 3.050781 -0.359375 3.390625 -0.457031 3.671875 -0.65625 C 3.960938 -0.863281 4.171875 -1.144531 4.296875 -1.5 L 4.796875 -1.5 C 4.648438 -1 4.382812 -0.601562 4 -0.3125 C 3.625 -0.03125 3.175781 0.109375 2.65625 0.109375 Z M 2.65625 0.109375 "/></g></g></g><g fill="#000000" fill-opacity="1"><g transform="translate(248.554751, 26.93634)"><g><path d="M 2.71875 0.109375 C 2.28125 0.109375 1.890625 0.015625 1.546875 -0.171875 C 1.210938 -0.367188 0.953125 -0.632812 0.765625 -0.96875 C 0.578125 -1.3125 0.484375 -1.703125 0.484375 -2.140625 C 0.484375 -2.578125 0.578125 -2.960938 0.765625 -3.296875 C 0.953125 -3.628906 1.210938 -3.890625 1.546875 -4.078125 C 1.890625 -4.273438 2.28125 -4.375 2.71875 -4.375 C 3.15625 -4.375 3.539062 -4.273438 3.875 -4.078125 C 4.21875 -3.890625 4.484375 -3.628906 4.671875 -3.296875 C 4.859375 -2.960938 4.953125 -2.578125 4.953125 -2.140625 C 4.953125 -1.703125 4.859375 -1.3125 4.671875 -0.96875 C 4.484375 -0.632812 4.21875 -0.367188 3.875 -0.171875 C 3.539062 0.015625 3.15625 0.109375 2.71875 0.109375 Z M 0.953125 -2.140625 C 0.953125 -1.785156 1.023438 -1.472656 1.171875 -1.203125 C 1.328125 -0.941406 1.535156 -0.734375 1.796875 -0.578125 C 2.066406 -0.429688 2.375 -0.359375 2.71875 -0.359375 C 3.070312 -0.359375 3.378906 -0.429688 3.640625 -0.578125 C 3.898438 -0.734375 4.101562 -0.941406 4.25 -1.203125 C 4.40625 -1.472656 4.484375 -1.785156 4.484375 -2.140625 C 4.484375 -2.492188 4.40625 -2.800781 4.25 -3.0625 C 4.101562 -3.320312 3.898438 -3.523438 3.640625 -3.671875 C 3.378906 -3.828125 3.070312 -3.90625 2.71875 -3.90625 C 2.375 -3.90625 2.066406 -3.828125 1.796875 -3.671875 C 1.535156 -3.523438 1.328125 -3.320312 1.171875 -3.0625 C 1.023438 -2.800781 0.953125 -2.492188 0.953125 -2.140625 Z M 0.953125 -2.140625 "/></g></g></g><g fill="#000000" fill-opacity="1"><g transform="translate(254.334931, 26.93634)"><g><path d="M 0.84375 0 L 0.84375 -4.265625 L 1.25 -4.265625 L 1.296875 -3.578125 C 1.597656 -4.109375 2.085938 -4.375 2.765625 -4.375 C 3.140625 -4.375 3.460938 -4.285156 3.734375 -4.109375 C 4.015625 -3.929688 4.210938 -3.675781 4.328125 -3.34375 C 4.472656 -3.675781 4.6875 -3.929688 4.96875 -4.109375 C 5.25 -4.285156 5.578125 -4.375 5.953125 -4.375 C 6.492188 -4.375 6.921875 -4.203125 7.234375 -3.859375 C 7.554688 -3.515625 7.71875 -3.046875 7.71875 -2.453125 L 7.71875 0 L 7.25 0 L 7.25 -2.375 C 7.25 -2.84375 7.125 -3.210938 6.875 -3.484375 C 6.632812 -3.765625 6.3125 -3.90625 5.90625 -3.90625 C 5.476562 -3.90625 5.140625 -3.765625 4.890625 -3.484375 C 4.640625 -3.203125 4.515625 -2.820312 4.515625 -2.34375 L 4.515625 0 L 4.046875 0 L 4.046875 -2.375 C 4.046875 -2.84375 3.921875 -3.210938 3.671875 -3.484375 C 3.429688 -3.765625 3.109375 -3.90625 2.703125 -3.90625 C 2.285156 -3.90625 1.953125 -3.765625 1.703125 -3.484375 C 1.453125 -3.203125 1.328125 -2.820312 1.328125 -2.34375 L 1.328125 0 Z M 0.84375 0 "/></g></g></g><g fill="#000000" fill-opacity="1"><g transform="translate(263.14931, 26.93634)"><g><path d="M 0.703125 0.53125 L 2.921875 -6.296875 L 3.40625 -6.296875 L 1.1875 0.53125 Z M 0.703125 0.53125 "/></g></g></g><g fill="#000000" fill-opacity="1"><g transform="translate(267.593787, 26.93634)"><g><path d="M 0.84375 0 L 0.84375 -4.265625 L 1.328125 -4.265625 L 1.328125 0 Z M 0.65625 -5.484375 C 0.65625 -5.597656 0.691406 -5.695312 0.765625 -5.78125 C 0.847656 -5.863281 0.957031 -5.90625 1.09375 -5.90625 C 1.21875 -5.90625 1.320312 -5.863281 1.40625 -5.78125 C 1.488281 -5.695312 1.53125 -5.597656 1.53125 -5.484375 C 1.53125 -5.359375 1.488281 -5.253906 1.40625 -5.171875 C 1.320312 -5.085938 1.21875 -5.046875 1.09375 -5.046875 C 0.957031 -5.046875 0.847656 -5.085938 0.765625 -5.171875 C 0.691406 -5.253906 0.65625 -5.359375 0.65625 -5.484375 Z M 0.65625 -5.484375 "/></g></g></g><g fill="#000000" fill-opacity="1"><g transform="translate(270.117151, 26.93634)"><g><path d="M 0.84375 0 L 0.84375 -4.265625 L 1.25 -4.265625 L 1.296875 -3.4375 C 1.460938 -3.75 1.6875 -3.984375 1.96875 -4.140625 C 2.257812 -4.296875 2.570312 -4.375 2.90625 -4.375 C 3.46875 -4.375 3.90625 -4.191406 4.21875 -3.828125 C 4.539062 -3.460938 4.703125 -2.972656 4.703125 -2.359375 L 4.703125 0 L 4.234375 0 L 4.234375 -2.3125 C 4.234375 -2.800781 4.109375 -3.1875 3.859375 -3.46875 C 3.609375 -3.757812 3.273438 -3.90625 2.859375 -3.90625 C 2.554688 -3.90625 2.289062 -3.832031 2.0625 -3.6875 C 1.832031 -3.550781 1.648438 -3.351562 1.515625 -3.09375 C 1.390625 -2.84375 1.328125 -2.550781 1.328125 -2.21875 L 1.328125 0 Z M 0.84375 0 "/></g></g></g><g fill="#000000" fill-opacity="1"><g transform="translate(275.930311, 26.93634)"><g><path d="M 0.703125 0.53125 L 2.921875 -6.296875 L 3.40625 -6.296875 L 1.1875 0.53125 Z M 0.703125 0.53125 "/></g></g></g><g fill="#000000" fill-opacity="1"><g transform="translate(280.374788, 26.93634)"><g><path d="M 0.84375 0 L 0.84375 -6.109375 L 1.328125 -6.109375 L 1.328125 -3.484375 C 1.492188 -3.773438 1.71875 -3.992188 2 -4.140625 C 2.28125 -4.296875 2.585938 -4.375 2.921875 -4.375 C 3.484375 -4.375 3.921875 -4.191406 4.234375 -3.828125 C 4.546875 -3.472656 4.703125 -2.988281 4.703125 -2.375 L 4.703125 0 L 4.234375 0 L 4.234375 -2.328125 C 4.234375 -2.816406 4.109375 -3.203125 3.859375 -3.484375 C 3.617188 -3.765625 3.285156 -3.90625 2.859375 -3.90625 C 2.566406 -3.90625 2.300781 -3.832031 2.0625 -3.6875 C 1.832031 -3.550781 1.648438 -3.359375 1.515625 -3.109375 C 1.390625 -2.859375 1.328125 -2.5625 1.328125 -2.21875 L 1.328125 0 Z M 0.84375 0 "/></g></g></g><g fill="#000000" fill-opacity="1"><g transform="translate(286.187948, 26.93634)"><g><path d="M 2.1875 0.0625 C 1.6875 0.0625 1.289062 -0.0507812 1 -0.28125 C 0.71875 -0.507812 0.578125 -0.816406 0.578125 -1.203125 C 0.578125 -1.585938 0.707031 -1.890625 0.96875 -2.109375 C 1.238281 -2.328125 1.59375 -2.4375 2.03125 -2.4375 L 3.90625 -2.4375 L 3.90625 -2.75 C 3.90625 -3.101562 3.785156 -3.382812 3.546875 -3.59375 C 3.304688 -3.8125 2.988281 -3.921875 2.59375 -3.921875 C 2.28125 -3.921875 2.003906 -3.84375 1.765625 -3.6875 C 1.523438 -3.539062 1.363281 -3.335938 1.28125 -3.078125 L 0.796875 -3.078125 C 0.898438 -3.472656 1.109375 -3.785156 1.421875 -4.015625 C 1.742188 -4.253906 2.132812 -4.375 2.59375 -4.375 C 2.945312 -4.375 3.257812 -4.304688 3.53125 -4.171875 C 3.800781 -4.035156 4.007812 -3.847656 4.15625 -3.609375 C 4.3125 -3.367188 4.390625 -3.085938 4.390625 -2.765625 L 4.390625 0 L 4 0 L 3.9375 -0.734375 C 3.75 -0.484375 3.503906 -0.285156 3.203125 -0.140625 C 2.898438 -0.00390625 2.5625 0.0625 2.1875 0.0625 Z M 1.0625 -1.21875 C 1.0625 -0.957031 1.160156 -0.75 1.359375 -0.59375 C 1.566406 -0.4375 1.847656 -0.359375 2.203125 -0.359375 C 2.535156 -0.359375 2.828125 -0.421875 3.078125 -0.546875 C 3.335938 -0.679688 3.539062 -0.859375 3.6875 -1.078125 C 3.84375 -1.296875 3.921875 -1.550781 3.921875 -1.84375 L 3.921875 -2.015625 L 2.046875 -2.015625 C 1.753906 -2.015625 1.515625 -1.941406 1.328125 -1.796875 C 1.148438 -1.648438 1.0625 -1.457031 1.0625 -1.21875 Z M 1.0625 -1.21875 "/></g></g></g><g fill="#000000" fill-opacity="1"><g transform="translate(291.679551, 26.93634)"><g><path d="M 0.84375 0 L 0.84375 -4.265625 L 1.328125 -4.265625 L 1.328125 0 Z M 0.65625 -5.484375 C 0.65625 -5.597656 0.691406 -5.695312 0.765625 -5.78125 C 0.847656 -5.863281 0.957031 -5.90625 1.09375 -5.90625 C 1.21875 -5.90625 1.320312 -5.863281 1.40625 -5.78125 C 1.488281 -5.695312 1.53125 -5.597656 1.53125 -5.484375 C 1.53125 -5.359375 1.488281 -5.253906 1.40625 -5.171875 C 1.320312 -5.085938 1.21875 -5.046875 1.09375 -5.046875 C 0.957031 -5.046875 0.847656 -5.085938 0.765625 -5.171875 C 0.691406 -5.253906 0.65625 -5.359375 0.65625 -5.484375 Z M 0.65625 -5.484375 "/></g></g></g><g fill="#000000" fill-opacity="1"><g transform="translate(294.202915, 26.93634)"><g><path d="M 0.84375 0 L 0.84375 -6.109375 L 1.328125 -6.109375 L 1.328125 0 Z M 0.84375 0 "/></g></g></g><g fill="#000000" fill-opacity="1"><g transform="translate(296.726279, 26.93634)"><g><path d="M 2.65625 0.109375 C 2.226562 0.109375 1.847656 0.015625 1.515625 -0.171875 C 1.191406 -0.367188 0.9375 -0.632812 0.75 -0.96875 C 0.570312 -1.3125 0.484375 -1.703125 0.484375 -2.140625 C 0.484375 -2.578125 0.570312 -2.960938 0.75 -3.296875 C 0.9375 -3.628906 1.191406 -3.890625 1.515625 -4.078125 C 1.847656 -4.273438 2.234375 -4.375 2.671875 -4.375 C 3.117188 -4.375 3.503906 -4.269531 3.828125 -4.0625 C 4.160156 -3.851562 4.414062 -3.566406 4.59375 -3.203125 C 4.769531 -2.847656 4.851562 -2.425781 4.84375 -1.9375 L 0.96875 -1.9375 C 1.007812 -1.457031 1.179688 -1.070312 1.484375 -0.78125 C 1.796875 -0.488281 2.1875 -0.34375 2.65625 -0.34375 C 3 -0.34375 3.300781 -0.421875 3.5625 -0.578125 C 3.832031 -0.734375 4.039062 -0.945312 4.1875 -1.21875 L 4.71875 -1.21875 C 4.550781 -0.8125 4.285156 -0.488281 3.921875 -0.25 C 3.554688 -0.0078125 3.132812 0.109375 2.65625 0.109375 Z M 0.96875 -2.359375 L 4.375 -2.359375 C 4.320312 -2.835938 4.140625 -3.21875 3.828125 -3.5 C 3.515625 -3.78125 3.128906 -3.921875 2.671875 -3.921875 C 2.191406 -3.921875 1.796875 -3.773438 1.484375 -3.484375 C 1.179688 -3.203125 1.007812 -2.828125 0.96875 -2.359375 Z M 0.96875 -2.359375 "/></g></g></g><g fill="#000000" fill-opacity="1"><g transform="translate(302.374537, 26.93634)"><g><path d="M 0.578125 1.65625 L 0.578125 1.203125 L 0.9375 1.203125 C 1.144531 1.203125 1.304688 1.179688 1.421875 1.140625 C 1.546875 1.109375 1.644531 1.039062 1.71875 0.9375 C 1.800781 0.84375 1.878906 0.707031 1.953125 0.53125 L 2.1875 -0.0625 L 0.171875 -4.265625 L 0.703125 -4.265625 L 1.703125 -2.15625 L 2.4375 -0.640625 L 3.046875 -2.15625 L 3.921875 -4.265625 L 4.421875 -4.265625 L 2.390625 0.71875 C 2.285156 0.96875 2.171875 1.160156 2.046875 1.296875 C 1.929688 1.429688 1.789062 1.523438 1.625 1.578125 C 1.457031 1.628906 1.242188 1.65625 0.984375 1.65625 Z M 0.578125 1.65625 "/></g></g></g><g fill="#000000" fill-opacity="1"><g transform="translate(307.31372, 26.93634)"><g><path d="M 0.84375 0 L 0.84375 -4.265625 L 1.25 -4.265625 L 1.296875 -3.4375 C 1.460938 -3.75 1.6875 -3.984375 1.96875 -4.140625 C 2.257812 -4.296875 2.570312 -4.375 2.90625 -4.375 C 3.46875 -4.375 3.90625 -4.191406 4.21875 -3.828125 C 4.539062 -3.460938 4.703125 -2.972656 4.703125 -2.359375 L 4.703125 0 L 4.234375 0 L 4.234375 -2.3125 C 4.234375 -2.800781 4.109375 -3.1875 3.859375 -3.46875 C 3.609375 -3.757812 3.273438 -3.90625 2.859375 -3.90625 C 2.554688 -3.90625 2.289062 -3.832031 2.0625 -3.6875 C 1.832031 -3.550781 1.648438 -3.351562 1.515625 -3.09375 C 1.390625 -2.84375 1.328125 -2.550781 1.328125 -2.21875 L 1.328125 0 Z M 0.84375 0 "/></g></g></g><g fill="#000000" fill-opacity="1"><g transform="translate(313.12688, 26.93634)"><g><path d="M 0.578125 1.65625 L 0.578125 1.203125 L 0.9375 1.203125 C 1.144531 1.203125 1.304688 1.179688 1.421875 1.140625 C 1.546875 1.109375 1.644531 1.039062 1.71875 0.9375 C 1.800781 0.84375 1.878906 0.707031 1.953125 0.53125 L 2.1875 -0.0625 L 0.171875 -4.265625 L 0.703125 -4.265625 L 1.703125 -2.15625 L 2.4375 -0.640625 L 3.046875 -2.15625 L 3.921875 -4.265625 L 4.421875 -4.265625 L 2.390625 0.71875 C 2.285156 0.96875 2.171875 1.160156 2.046875 1.296875 C 1.929688 1.429688 1.789062 1.523438 1.625 1.578125 C 1.457031 1.628906 1.242188 1.65625 0.984375 1.65625 Z M 0.578125 1.65625 "/></g></g></g><g fill="#000000" fill-opacity="1"><g transform="translate(318.066063, 26.93634)"><g><path d="M 2.65625 0.109375 C 2.226562 0.109375 1.847656 0.015625 1.515625 -0.171875 C 1.191406 -0.367188 0.9375 -0.632812 0.75 -0.96875 C 0.570312 -1.3125 0.484375 -1.703125 0.484375 -2.140625 C 0.484375 -2.578125 0.570312 -2.960938 0.75 -3.296875 C 0.9375 -3.628906 1.191406 -3.890625 1.515625 -4.078125 C 1.847656 -4.273438 2.226562 -4.375 2.65625 -4.375 C 3 -4.375 3.3125 -4.3125 3.59375 -4.1875 C 3.882812 -4.0625 4.128906 -3.882812 4.328125 -3.65625 C 4.523438 -3.425781 4.664062 -3.15625 4.75 -2.84375 L 4.265625 -2.84375 C 4.128906 -3.1875 3.914062 -3.445312 3.625 -3.625 C 3.34375 -3.8125 3.019531 -3.90625 2.65625 -3.90625 C 2.320312 -3.90625 2.023438 -3.828125 1.765625 -3.671875 C 1.515625 -3.523438 1.316406 -3.320312 1.171875 -3.0625 C 1.023438 -2.800781 0.953125 -2.492188 0.953125 -2.140625 C 0.953125 -1.785156 1.023438 -1.472656 1.171875 -1.203125 C 1.316406 -0.941406 1.515625 -0.734375 1.765625 -0.578125 C 2.023438 -0.429688 2.320312 -0.359375 2.65625 -0.359375 C 3.050781 -0.359375 3.390625 -0.457031 3.671875 -0.65625 C 3.960938 -0.863281 4.171875 -1.144531 4.296875 -1.5 L 4.796875 -1.5 C 4.648438 -1 4.382812 -0.601562 4 -0.3125 C 3.625 -0.03125 3.175781 0.109375 2.65625 0.109375 Z M 2.65625 0.109375 "/></g></g></g><g fill="#000000" fill-opacity="1"><g transform="translate(323.656608, 26.93634)"><g><path d="M 2.53125 0.109375 C 1.976562 0.109375 1.546875 -0.0703125 1.234375 -0.4375 C 0.921875 -0.800781 0.765625 -1.289062 0.765625 -1.90625 L 0.765625 -4.265625 L 1.234375 -4.265625 L 1.234375 -1.953125 C 1.234375 -1.460938 1.351562 -1.070312 1.59375 -0.78125 C 1.84375 -0.5 2.175781 -0.359375 2.59375 -0.359375 C 2.894531 -0.359375 3.15625 -0.425781 3.375 -0.5625 C 3.601562 -0.707031 3.78125 -0.910156 3.90625 -1.171875 C 4.03125 -1.429688 4.09375 -1.726562 4.09375 -2.0625 L 4.09375 -4.265625 L 4.578125 -4.265625 L 4.578125 0 L 4.171875 0 L 4.125 -0.828125 C 3.957031 -0.523438 3.734375 -0.289062 3.453125 -0.125 C 3.171875 0.03125 2.863281 0.109375 2.53125 0.109375 Z M 2.53125 0.109375 "/></g></g></g><g fill="#000000" fill-opacity="1"><g transform="translate(329.420293, 26.93634)"><g><path d="M 0.84375 0 L 0.84375 -4.265625 L 1.25 -4.265625 L 1.296875 -3.578125 C 1.597656 -4.109375 2.085938 -4.375 2.765625 -4.375 C 3.140625 -4.375 3.460938 -4.285156 3.734375 -4.109375 C 4.015625 -3.929688 4.210938 -3.675781 4.328125 -3.34375 C 4.472656 -3.675781 4.6875 -3.929688 4.96875 -4.109375 C 5.25 -4.285156 5.578125 -4.375 5.953125 -4.375 C 6.492188 -4.375 6.921875 -4.203125 7.234375 -3.859375 C 7.554688 -3.515625 7.71875 -3.046875 7.71875 -2.453125 L 7.71875 0 L 7.25 0 L 7.25 -2.375 C 7.25 -2.84375 7.125 -3.210938 6.875 -3.484375 C 6.632812 -3.765625 6.3125 -3.90625 5.90625 -3.90625 C 5.476562 -3.90625 5.140625 -3.765625 4.890625 -3.484375 C 4.640625 -3.203125 4.515625 -2.820312 4.515625 -2.34375 L 4.515625 0 L 4.046875 0 L 4.046875 -2.375 C 4.046875 -2.84375 3.921875 -3.210938 3.671875 -3.484375 C 3.429688 -3.765625 3.109375 -3.90625 2.703125 -3.90625 C 2.285156 -3.90625 1.953125 -3.765625 1.703125 -3.484375 C 1.453125 -3.203125 1.328125 -2.820312 1.328125 -2.34375 L 1.328125 0 Z M 0.84375 0 "/></g></g></g></g></g><g clip-path="url(#51b87ca52b)"><path fill="#abc3a8" d="M 3.007812 143.96875 L 1121.992188 143.96875 L 1121.992188 160.328125 L 3.007812 160.328125 Z M 3.007812 143.96875 " fill-opacity="1" fill-rule="nonzero"/></g><g clip-path="url(#aa8891e920)"><path fill="#5d5956" d="M 3.007812 143.96875 L 425.082031 143.96875 L 425.082031 160.328125 L 3.007812 160.328125 Z M 3.007812 143.96875 " fill-opacity="1" fill-rule="nonzero"/></g></svg>